<svg xmlns="http://www.w3.org/2000/svg" xmlns:svg="http://www.w3.org/2000/svg" xmlns:xlink="http://www.w3.org/1999/xlink" id="svg4569" width="48" height="48" version="1.1"><metadata id="metadata42"/><defs id="defs4571"><linearGradient id="linearGradient4054"><stop id="stop4056" offset="0" stop-color="#fff" stop-opacity="1"/><stop id="stop4058" offset=".063" stop-color="#fff" stop-opacity=".235"/><stop id="stop4060" offset=".969" stop-color="#fff" stop-opacity=".157"/><stop id="stop4062" offset="1" stop-color="#fff" stop-opacity=".392"/></linearGradient><linearGradient id="linearGradient3912"><stop id="stop3914" offset="0" stop-color="#273445" stop-opacity="1"/><stop id="stop3916" offset=".35" stop-color="#667885" stop-opacity="1"/><stop id="stop3918" offset=".494" stop-color="#95a3ab" stop-opacity="1"/><stop id="stop3920" offset=".589" stop-color="#667885" stop-opacity="1"/><stop id="stop3922" offset="1" stop-color="#485a6c" stop-opacity="1"/></linearGradient><linearGradient id="linearGradient3342"><stop id="stop3344" offset="0" stop-color="#fff" stop-opacity="0"/><stop id="stop3346" offset="1" stop-color="#fff" stop-opacity="1"/></linearGradient><linearGradient id="linearGradient10691-1"><stop id="stop10693-3" offset="0" stop-color="#000" stop-opacity="1"/><stop id="stop10695-1" offset="1" stop-color="#000" stop-opacity="0"/></linearGradient><linearGradient id="linearGradient2993" x1="15.574" x2="23.578" y1="46.971" y2="46.971" gradientTransform="matrix(1.1176471,0,0,1,-2.3519696,-3.4710029)" gradientUnits="userSpaceOnUse" spreadMethod="reflect" xlink:href="#linearGradient3342"/><radialGradient id="radialGradient3001" cx="6.703" cy="73.616" r="7.228" fx="6.703" fy="73.616" gradientTransform="matrix(1.9368007,0,0,0.4150287,11.018182,13.447365)" gradientUnits="userSpaceOnUse" xlink:href="#linearGradient10691-1"/><linearGradient id="linearGradient3832-9" x1="361.106" x2="361.106" y1="87.05" y2="94.396" gradientTransform="matrix(0.9964089,0,0,1.0001438,-332.882,-50.012717)" gradientUnits="userSpaceOnUse" xlink:href="#linearGradient3912"/><linearGradient id="linearGradient3887" x1="10" x2="20" y1="-3" y2="12" gradientTransform="matrix(1.1500002,0,0,1.1666666,-0.15000354,13.333333)" gradientUnits="userSpaceOnUse" xlink:href="#linearGradient3880"/><linearGradient id="linearGradient3880"><stop id="stop3883" offset="0" stop-color="#fff" stop-opacity="1"/><stop id="stop3885" offset="1" stop-color="#fff" stop-opacity="0"/></linearGradient><linearGradient id="outerBackgroundGradient-5-0"><stop id="stop3864-8-6-4" offset="0" stop-color="#d4d4d4" stop-opacity="1"/><stop id="stop3866-9-1-86" offset="1" stop-color="#fafafa" stop-opacity="1"/></linearGradient><linearGradient id="linearGradient4020" x1="15" x2="15" y1="24.619" y2="2" gradientTransform="matrix(1.0500002,0,0,1.2173913,1.949997,15.73913)" gradientUnits="userSpaceOnUse" xlink:href="#outerBackgroundGradient-5-0"/><linearGradient id="linearGradient3924-1"><stop id="stop3926-3" offset="0" stop-color="#fff" stop-opacity="1"/><stop id="stop3928-91" offset=".063" stop-color="#fff" stop-opacity=".235"/><stop id="stop3930-6" offset=".951" stop-color="#fff" stop-opacity=".157"/><stop id="stop3932-6" offset="1" stop-color="#fff" stop-opacity=".392"/></linearGradient><linearGradient id="linearGradient3916" x1="24" x2="24" y1="5" y2="43" gradientTransform="matrix(1.2162163,0,0,0.83783786,-5.1891986,-0.10809896)" gradientUnits="userSpaceOnUse" xlink:href="#linearGradient3924-1"/><linearGradient id="linearGradient3916-5" x1="24" x2="24" y1="5" y2="43" gradientTransform="matrix(1.2162163,0,0,0.83783786,-5.1891986,-0.10809896)" gradientUnits="userSpaceOnUse" xlink:href="#linearGradient3924-1-0"/><linearGradient id="linearGradient3924-1-0"><stop id="stop3926-3-7" offset="0" stop-color="#fff" stop-opacity="1"/><stop id="stop3928-91-0" offset=".063" stop-color="#fff" stop-opacity=".235"/><stop id="stop3930-6-2" offset=".951" stop-color="#fff" stop-opacity=".157"/><stop id="stop3932-6-0" offset="1" stop-color="#fff" stop-opacity=".392"/></linearGradient><linearGradient id="linearGradient4052" x1="23.386" x2="23.386" y1="42.776" y2="51.377" gradientTransform="matrix(1.2162163,0,0,0.83783786,-5.1891986,-0.10809896)" gradientUnits="userSpaceOnUse" xlink:href="#linearGradient4054"/><linearGradient id="linearGradient4066" x1="24" x2="24" y1="5" y2="43" gradientTransform="matrix(1.1554773,0,0,0.83783786,-3.5186976,-0.10809896)" gradientUnits="userSpaceOnUse" xlink:href="#linearGradient3924-1-0"/><linearGradient id="linearGradient4073" x1="24.81" x2="24.81" y1="51.419" y2="42.989" gradientTransform="matrix(1.2162163,0,0,0.83783786,-5.1891986,-0.10809896)" gradientUnits="userSpaceOnUse" xlink:href="#linearGradient4054"/><linearGradient id="linearGradient4276" x1="174.083" x2="187.775" y1="42.356" y2="18.597" gradientTransform="matrix(-2.1072996,0,0,1.3877336,415.41957,-16.60013)" gradientUnits="userSpaceOnUse" xlink:href="#linearGradient3342"/><linearGradient id="linearGradient4278" x1="181.835" x2="184.025" y1="33.617" y2="25.441" gradientTransform="matrix(-1.3090953,0,0,1.3090953,271.66198,-13.928745)" gradientUnits="userSpaceOnUse" xlink:href="#linearGradient3342"/></defs><g id="g4277"><g id="g4230"><path d="m 38,44 c 0,1.656855 -6.268014,3 -14.000001,3 C 16.268013,47 10,45.656855 10,44 10,42.343146 16.268013,41 23.999999,41 31.731986,41 38,42.343146 38,44 l 0,0 z" style="marker:none" id="path2589" fill="url(#radialGradient3001)" fill-opacity="1" fill-rule="nonzero" stroke="none" stroke-width=".8" display="inline" opacity=".3" overflow="visible" visibility="visible"/><path id="rect1789" fill="url(#linearGradient3832-9)" fill-opacity="1" fill-rule="nonzero" stroke="none" stroke-dasharray="none" stroke-dashoffset=".5" stroke-linecap="round" stroke-linejoin="round" stroke-miterlimit="4" stroke-opacity="1" stroke-width=".998" d="m 17.859462,36.249806 c 0,0 0.141772,4.25777 -0.565344,5.250194 -0.707116,0.992424 -2.114148,1.004 -2.114148,1.004 -0.902888,0.104262 -0.910357,1.996 0,1.996 l 17.63999,0 c 0.910357,0 0.903077,-1.893068 0,-1.996 0,0 -1.406971,-0.01158 -2.114077,-1.004 -0.707106,-0.992422 -0.565415,-5.250194 -0.565415,-5.250194 l -12.281006,0 z" color="#000" display="inline" enable-background="new" overflow="visible" visibility="visible" style="marker:none"/><path id="rect1789-3" fill="none" fill-opacity="1" fill-rule="nonzero" stroke="#000" stroke-dasharray="none" stroke-dashoffset=".5" stroke-linecap="round" stroke-linejoin="round" stroke-miterlimit="4" stroke-opacity="1" stroke-width=".998" d="m 17.859462,36.249806 c 0,0 0.141772,4.25777 -0.565344,5.250194 -0.707116,0.992424 -2.114148,1.004 -2.114148,1.004 -0.902888,0.104262 -0.910357,1.996 0,1.996 l 17.63999,0 c 0.910357,0 0.903077,-1.893068 0,-1.996 0,0 -1.406971,-0.01158 -2.114077,-1.004 -0.707106,-0.992422 -0.565415,-5.250194 -0.565415,-5.250194 l -12.281006,0 z" color="#000" display="inline" enable-background="new" opacity=".4" overflow="visible" visibility="visible" style="marker:none"/><path id="path4050" fill="none" stroke="url(#linearGradient4073)" stroke-dasharray="none" stroke-dashoffset="0" stroke-linecap="round" stroke-linejoin="round" stroke-miterlimit="4" stroke-opacity="1" stroke-width="1" d="m 18.90625,33.28125 c 0,0 0.0029,4.605435 -0.03125,5.28125 -0.03123,0.618032 -0.08833,1.273442 -0.1875,1.875 -0.09917,0.601558 -0.174655,1.111917 -0.5625,1.65625 -0.855934,1.201288 -1.982095,1.34413 -2.5,1.375 l 16.75,0 c -0.517906,-0.03087 -1.644071,-0.173707 -2.5,-1.375 -0.38784,-0.544333 -0.463329,-1.054693 -0.5625,-1.65625 -0.09917,-0.601557 -0.156272,-1.256968 -0.1875,-1.875 -0.03415,-0.675815 -0.03125,-5.28125 -0.03125,-5.28125 z" color="#000" display="inline" enable-background="accumulate" opacity=".3" overflow="visible" visibility="visible" style="marker:none"/><rect id="rect2722" width="47" height="33" x=".5" y="3.5" fill="#1a1a1a" fill-opacity="1" stroke="#000" stroke-dasharray="none" stroke-dashoffset=".5" stroke-linecap="round" stroke-linejoin="round" stroke-miterlimit="4" stroke-opacity="1" stroke-width="1" rx="1.044" ry="1"/><path id="rect2722-0" fill="url(#linearGradient4020)" fill-opacity="1" stroke="none" d="M 3.0000002,6 45,6 45,34 3.0000002,34 Z" display="inline"/><path id="path3942" fill="#000" fill-opacity="1" stroke="none" d="m 3.0000001,6 0,28 L 45,34 45,6 Z M 4,7 44,7 44,33 3.9999999,33 Z" display="inline" opacity=".1"/><rect id="rect6741" width="45" height="31" x="1.5" y="4.5" fill="none" stroke="url(#linearGradient3916)" stroke-dasharray="none" stroke-dashoffset="0" stroke-linecap="round" stroke-linejoin="round" stroke-miterlimit="4" stroke-opacity="1" stroke-width="1" opacity=".2" rx="0" ry="0"/></g><g id="g4265"><path id="path4255" fill="#c6262e" fill-opacity="1" fill-rule="evenodd" stroke="none" stroke-dasharray="none" stroke-dashoffset="0" stroke-linecap="butt" stroke-linejoin="round" stroke-miterlimit="4" stroke-opacity="1" stroke-width="1" d="M 44.5,6.4999318 3.4998836,33.5 44.5,33.5 Z M 35.500244,21 35.499755,27.5 25.5,27.5 Z" color="#000" display="inline" enable-background="accumulate" opacity=".9" overflow="visible" visibility="visible" style="marker:none"/><path id="path3981" fill="none" stroke="url(#linearGradient4276)" stroke-linecap="butt" stroke-linejoin="miter" stroke-opacity="1" stroke-width="1" d="M 43.5,8.3575436 43.5,32.5 6.8338522,32.5 Z" opacity=".5"/><path id="path3981-5" fill="none" stroke="url(#linearGradient4278)" stroke-linecap="butt" stroke-linejoin="miter" stroke-opacity="1" stroke-width="1" d="m 36.5,20.5 0,8 -11.5,0" opacity=".5"/><path id="path4215" fill="none" fill-opacity=".588" fill-rule="evenodd" stroke="#7a0000" stroke-dasharray="none" stroke-dashoffset="0" stroke-linecap="butt" stroke-linejoin="round" stroke-miterlimit="4" stroke-opacity="1" stroke-width="1" d="M 44.5,6.4999318 3.4998836,33.5 44.5,33.5 Z M 35.500244,21 35.499755,27.5 25.5,27.5 Z" color="#000" display="inline" enable-background="accumulate" overflow="visible" visibility="visible" style="marker:none"/><g id="g4260" opacity=".3"><path id="rect4221" fill="#000" fill-opacity="1" fill-rule="nonzero" stroke="none" stroke-dasharray="none" stroke-dashoffset="0" stroke-linecap="round" stroke-linejoin="round" stroke-miterlimit="4" stroke-opacity="1" stroke-width="1" d="M 10 31 L 10 33 L 11 33 L 11 31 L 10 31 z M 13 31 L 13 33 L 14 33 L 14 31 L 13 31 z M 16 31 L 16 33 L 17 33 L 17 31 L 16 31 z M 19 31 L 19 33 L 20 33 L 20 31 L 19 31 z M 22 31 L 22 33 L 23 33 L 23 31 L 22 31 z M 25 31 L 25 33 L 26 33 L 26 31 L 25 31 z M 28 31 L 28 33 L 29 33 L 29 31 L 28 31 z M 31 31 L 31 33 L 32 33 L 32 31 L 31 31 z M 34 31 L 34 33 L 35 33 L 35 31 L 34 31 z M 37 31 L 37 33 L 38 33 L 38 31 L 37 31 z M 40 31 L 40 33 L 41 33 L 41 31 L 40 31 z" clip-rule="nonzero" color="#000" color-interpolation="sRGB" color-interpolation-filters="linearRGB" color-rendering="auto" display="inline" enable-background="accumulate" image-rendering="auto" opacity="1" overflow="visible" shape-rendering="auto" text-rendering="auto" visibility="visible" style="isolation:auto;mix-blend-mode:normal;solid-color:#000;solid-opacity:1;marker:none"/><path id="path4248" fill="#000" fill-opacity="1" fill-rule="nonzero" stroke="none" stroke-dasharray="none" stroke-dashoffset="0" stroke-linecap="round" stroke-linejoin="round" stroke-miterlimit="4" stroke-opacity="1" stroke-width="1" d="m 44,11 -2,0 0,1 2,0 0,-1 z m 0,3 -2,0 0,1 2,0 0,-1 z m 0,3 -2,0 0,1 2,0 0,-1 z m 0,3 -2,0 0,1 2,0 0,-1 z m 0,3 -2,0 0,1 2,0 0,-1 z m 0,3 -2,0 0,1 2,0 0,-1 z m 0,3 -2,0 0,1 2,0 0,-1 z" clip-rule="nonzero" color="#000" color-interpolation="sRGB" color-interpolation-filters="linearRGB" color-rendering="auto" display="inline" enable-background="accumulate" image-rendering="auto" opacity="1" overflow="visible" shape-rendering="auto" text-rendering="auto" visibility="visible" style="isolation:auto;mix-blend-mode:normal;solid-color:#000;solid-opacity:1;marker:none"/></g><g id="g4256"><path id="path4240" fill="#fff" fill-opacity="1" fill-rule="nonzero" stroke="none" stroke-dasharray="none" stroke-dashoffset="0" stroke-linecap="round" stroke-linejoin="round" stroke-miterlimit="4" stroke-opacity="1" stroke-width="1" d="M 11 31 L 11 33 L 12 33 L 12 31 L 11 31 z M 14 31 L 14 33 L 15 33 L 15 31 L 14 31 z M 17 31 L 17 33 L 18 33 L 18 31 L 17 31 z M 20 31 L 20 33 L 21 33 L 21 31 L 20 31 z M 23 31 L 23 33 L 24 33 L 24 31 L 23 31 z M 26 31 L 26 33 L 27 33 L 27 31 L 26 31 z M 29 31 L 29 33 L 30 33 L 30 31 L 29 31 z M 32 31 L 32 33 L 33 33 L 33 31 L 32 31 z M 35 31 L 35 33 L 36 33 L 36 31 L 35 31 z M 38 31 L 38 33 L 39 33 L 39 31 L 38 31 z M 41 31 L 41 33 L 42 33 L 42 31 L 41 31 z" clip-rule="nonzero" color="#000" color-interpolation="sRGB" color-interpolation-filters="linearRGB" color-rendering="auto" display="inline" enable-background="accumulate" image-rendering="auto" opacity=".2" overflow="visible" shape-rendering="auto" text-rendering="auto" visibility="visible" style="isolation:auto;mix-blend-mode:normal;solid-color:#000;solid-opacity:1;marker:none"/><path id="path4250" fill="#fff" fill-opacity="1" fill-rule="nonzero" stroke="none" stroke-dasharray="none" stroke-dashoffset="0" stroke-linecap="round" stroke-linejoin="round" stroke-miterlimit="4" stroke-opacity="1" stroke-width="1" d="m 44,12 -2,0 0,1 2,0 0,-1 z m 0,3 -2,0 0,1 2,0 0,-1 z m 0,3 -2,0 0,1 2,0 0,-1 z m 0,3 -2,0 0,1 2,0 0,-1 z m 0,3 -2,0 0,1 2,0 0,-1 z m 0,3 -2,0 0,1 2,0 0,-1 z m 0,3 -2,0 0,1 2,0 0,-1 z" clip-rule="nonzero" color="#000" color-interpolation="sRGB" color-interpolation-filters="linearRGB" color-rendering="auto" display="inline" enable-background="accumulate" image-rendering="auto" opacity=".2" overflow="visible" shape-rendering="auto" text-rendering="auto" visibility="visible" style="isolation:auto;mix-blend-mode:normal;solid-color:#000;solid-opacity:1;marker:none"/></g></g></g></svg>