<svg xmlns="http://www.w3.org/2000/svg" xmlns:svg="http://www.w3.org/2000/svg" xmlns:xlink="http://www.w3.org/1999/xlink" id="svg3012" width="24" height="24" version="1.1"><metadata id="metadata43"/><defs id="defs3014"><linearGradient id="linearGradient3912"><stop id="stop3914" offset="0" stop-color="#273445" stop-opacity="1"/><stop id="stop3916" offset=".35" stop-color="#667885" stop-opacity="1"/><stop id="stop3918" offset=".494" stop-color="#95a3ab" stop-opacity="1"/><stop id="stop3920" offset=".589" stop-color="#667885" stop-opacity="1"/><stop id="stop3922" offset="1" stop-color="#485a6c" stop-opacity="1"/></linearGradient><linearGradient id="linearGradient10691-1"><stop id="stop10693-3" offset="0" stop-color="#000" stop-opacity="1"/><stop id="stop10695-1" offset="1" stop-color="#000" stop-opacity="0"/></linearGradient><linearGradient id="linearGradient4293"><stop id="stop4295" offset="0" stop-color="#fff" stop-opacity="1"/><stop id="stop4297" offset=".034" stop-color="#fff" stop-opacity=".235"/><stop id="stop4299" offset=".969" stop-color="#fff" stop-opacity=".157"/><stop id="stop4301" offset="1" stop-color="#fff" stop-opacity=".392"/></linearGradient><linearGradient id="linearGradient3176" x1="361.106" x2="361.106" y1="87.05" y2="94.396" gradientTransform="matrix(0.57696706,0,0,0.6063427,-194.65125,-34.797997)" gradientUnits="userSpaceOnUse" xlink:href="#linearGradient3912"/><radialGradient id="radialGradient3182" cx="6.703" cy="73.616" r="7.228" fx="6.703" fy="73.616" gradientTransform="matrix(0.96840037,0,0,0.20751434,5.509091,7.223683)" gradientUnits="userSpaceOnUse" xlink:href="#linearGradient10691-1"/><linearGradient id="linearGradient3197" x1="24.81" x2="24.81" y1="51.15" y2="42.989" gradientTransform="matrix(0.58932647,0,0,0.38995666,-2.1438423,1.2179352)" gradientUnits="userSpaceOnUse" xlink:href="#linearGradient4293"/><linearGradient id="linearGradient3223-9"><stop id="stop3225-6" offset="0" stop-color="#fff" stop-opacity="1"/><stop id="stop3227-2" offset=".015" stop-color="#fff" stop-opacity=".235"/><stop id="stop3229-0" offset=".996" stop-color="#fff" stop-opacity=".157"/><stop id="stop3231-1" offset="1" stop-color="#fff" stop-opacity=".392"/></linearGradient><linearGradient id="linearGradient3224" x1="24" x2="24" y1="6.392" y2="41.423" gradientTransform="matrix(0.56756766,0,0,0.37837836,-1.6216268,0.41892331)" gradientUnits="userSpaceOnUse" xlink:href="#linearGradient3223-9"/><linearGradient id="outerBackgroundGradient-5-0-2-5"><stop id="stop3864-8-6-4-7-0" offset="0" stop-color="#d4d4d4" stop-opacity="1"/><stop id="stop3866-9-1-86-7-6" offset="1" stop-color="#fafafa" stop-opacity="1"/></linearGradient><linearGradient id="linearGradient3262" x1="15" x2="15" y1="24.619" y2="2" gradientTransform="matrix(0.50000009,0,0,0.56521738,1.4999986,7.5217386)" gradientUnits="userSpaceOnUse" xlink:href="#outerBackgroundGradient-5-0-2-5"/><linearGradient id="linearGradient3880-3-9"><stop id="stop3883-1-6" offset="0" stop-color="#fff" stop-opacity="1"/><stop id="stop3885-5-6" offset="1" stop-color="#fff" stop-opacity="0"/></linearGradient><linearGradient id="linearGradient3365" x1="10" x2="20" y1="-3" y2="12" gradientTransform="matrix(0.55000009,0,0,0.5555555,0.4499978,6.4444438)" gradientUnits="userSpaceOnUse" xlink:href="#linearGradient3880-3-9"/><linearGradient id="linearGradient3038" x1="192.249" x2="174.137" y1="20.169" y2="38.282" gradientTransform="matrix(-0.8595058,0,0,0.54284563,172.55103,-4.5379881)" gradientUnits="userSpaceOnUse" xlink:href="#linearGradient3880-3-9"/><linearGradient id="linearGradient3035" x1="183.78" x2="183.78" y1="26.718" y2="35.03" gradientTransform="matrix(-0.5872402,0,0,0.58572077,123.70265,-5.6493476)" gradientUnits="userSpaceOnUse" xlink:href="#linearGradient3880-3-9"/></defs><g id="g4229"><g id="g4200"><path id="path2589" fill="url(#radialGradient3182)" fill-opacity="1" fill-rule="nonzero" stroke="none" stroke-width=".8" d="M 19,22.500001 C 19,23.328428 15.865993,24 11.999999,24 8.1340066,24 5,23.328428 5,22.500001 5,21.671573 8.1340066,21 11.999999,21 15.865993,21 19,21.671573 19,22.500001 l 0,0 z" display="inline" opacity=".3" overflow="visible" visibility="visible" style="marker:none"/><path id="rect1789" fill="url(#linearGradient3176)" fill-opacity="1" fill-rule="nonzero" stroke="none" stroke-dasharray="none" stroke-dashoffset=".5" stroke-linecap="round" stroke-linejoin="round" stroke-miterlimit="4" stroke-opacity="1" stroke-width=".998" d="m 8.5,17.499134 c 0,0 0.2272727,2.146045 0,2.500866 -0.3925362,0.612833 -1.6072079,0.5 -1.6072079,0.5 -0.5228141,0.06321 -0.527139,2.000859 0,2.000859 l 10.2143739,0 c 0.527139,0 0.522923,-1.938456 0,-2.000859 0,0 -1.171508,0.08298 -1.607166,-0.5 -0.245811,-0.328936 0,-2.500866 0,-2.500866 l -7,0 z" color="#000" display="inline" enable-background="new" overflow="visible" visibility="visible" style="marker:none"/><path id="path4050" fill="none" stroke="url(#linearGradient3197)" stroke-dasharray="none" stroke-dashoffset="0" stroke-linecap="round" stroke-linejoin="round" stroke-miterlimit="4" stroke-opacity="1" stroke-width="1" d="m 9.5317834,16.75841 c 0,0 0.066416,2.143517 0.049899,2.458064 -0.01513,0.287652 -0.026542,0.5927 -0.074595,0.872684 -0.048054,0.279985 -0.2327195,0.491303 -0.4206528,0.744653 C 8.6716825,21.392929 7.7665389,21.485633 7.5155844,21.5 l 8.9850896,0 c -0.250954,-0.01437 -1.145643,-0.159507 -1.560389,-0.718628 -0.187931,-0.25335 -0.383057,-0.412229 -0.431111,-0.692214 -0.04805,-0.279983 -0.108238,-0.585032 -0.123368,-0.872684 -0.01654,-0.314547 0.08241,-2.458064 0.08241,-2.458064 z" color="#000" display="inline" enable-background="accumulate" opacity=".3" overflow="visible" visibility="visible" style="marker:none"/><path id="rect1789-7" fill="none" fill-opacity="1" fill-rule="nonzero" stroke="#000" stroke-dasharray="none" stroke-dashoffset=".5" stroke-linecap="round" stroke-linejoin="round" stroke-miterlimit="4" stroke-opacity="1" stroke-width="1" d="m 8.5,17.499134 c 0,0 0.2272727,2.146045 0,2.500866 -0.3925362,0.612833 -1.6072079,0.5 -1.6072079,0.5 -0.5228141,0.06321 -0.527139,2.000859 0,2.000859 l 10.2143739,0 c 0.527139,0 0.522923,-1.938456 0,-2.000859 0,0 -1.171508,0.08298 -1.607166,-0.5 -0.245811,-0.328936 0,-2.500866 0,-2.500866 l -7,0 z" color="#000" display="inline" enable-background="new" opacity=".4" overflow="visible" visibility="visible" style="marker:none"/><rect id="rect2722" width="23" height="16" x=".5" y="1.5" fill="#1a1a1a" fill-opacity="1" stroke="#000" stroke-dasharray="none" stroke-dashoffset=".5" stroke-linecap="round" stroke-linejoin="round" stroke-miterlimit="4" stroke-opacity="1" stroke-width="1" rx=".511" ry=".485"/><rect id="rect6741-9-2" width="21" height="14" x="1.5" y="2.5" fill="none" stroke="url(#linearGradient3224)" stroke-dasharray="none" stroke-dashoffset="0" stroke-linecap="round" stroke-linejoin="round" stroke-miterlimit="4" stroke-opacity="1" stroke-width="1" opacity=".2" rx="0" ry="0"/><path id="rect2722-0-2-1" fill="url(#linearGradient3262)" fill-opacity="1" stroke="none" d="M 2,3 22,3 22,16 2,16 Z" display="inline"/><path id="rect2722-0-2-1-6" fill="#000" fill-opacity="1" fill-rule="nonzero" stroke="none" stroke-width="1" d="M 2,3 2,16 22,16 22,3 2,3 Z M 3,4 21,4 21,15 3,15 3,4 Z" color="#000" display="inline" enable-background="accumulate" opacity=".1" overflow="visible" visibility="visible" style="marker:none"/></g><g id="g4223"><path id="path4221" fill="#c6262e" fill-opacity="1" fill-rule="evenodd" stroke="none" stroke-dasharray="none" stroke-linecap="butt" stroke-linejoin="round" stroke-miterlimit="4" stroke-opacity="1" stroke-width="1" d="M 21.5,3.4999301 2.4998796,15.5 21.5,15.5 Z m -3,6.0000698 0,4.0000001 -6,0 z" opacity=".9"/><path id="path3981" fill="none" stroke="url(#linearGradient3038)" stroke-linecap="butt" stroke-linejoin="miter" stroke-opacity="1" stroke-width="1" d="M 20.5,5.3304531 20.5,14.5 5.9466382,14.5 Z" opacity=".5"/><path id="path3981-5" fill="none" stroke="url(#linearGradient3035)" stroke-linecap="butt" stroke-linejoin="miter" stroke-opacity="1" stroke-width="1" d="M 19.5,8.9999997 19.5,14.5 12,14.5" opacity=".2"/><path id="path4195" fill="none" fill-opacity=".588" fill-rule="evenodd" stroke="#7a0000" stroke-dasharray="none" stroke-linecap="butt" stroke-linejoin="round" stroke-miterlimit="4" stroke-opacity="1" stroke-width="1" d="M 21.5,3.4999301 2.4998796,15.5 21.5,15.5 Z m -3,6.0000698 0,4.0000001 -6,0 z"/></g></g></svg>