<svg xmlns="http://www.w3.org/2000/svg" xmlns:svg="http://www.w3.org/2000/svg" xmlns:xlink="http://www.w3.org/1999/xlink" id="svg4569" width="128" height="128" version="1.0"><metadata id="metadata46"/><defs id="defs4571"><linearGradient id="linearGradient4306"><stop id="stop4308" offset="0" stop-color="#fff" stop-opacity="1"/><stop id="stop4310" offset="1" stop-color="#fff" stop-opacity="0"/></linearGradient><linearGradient id="linearGradient3912"><stop id="stop3914" offset="0" stop-color="#273445" stop-opacity="1"/><stop id="stop3916" offset=".35" stop-color="#667885" stop-opacity="1"/><stop id="stop3918" offset=".494" stop-color="#95a3ab" stop-opacity="1"/><stop id="stop3920" offset=".589" stop-color="#667885" stop-opacity="1"/><stop id="stop3922" offset="1" stop-color="#485a6c" stop-opacity="1"/></linearGradient><linearGradient id="linearGradient6592-2-7"><stop id="stop6594-0-2" offset="0" stop-color="#fff" stop-opacity=".275"/><stop id="stop6596-2-5" offset="1" stop-color="#fff" stop-opacity="0"/></linearGradient><linearGradient id="linearGradient10691-1"><stop id="stop10693-3" offset="0" stop-color="#000" stop-opacity="1"/><stop id="stop10695-1" offset="1" stop-color="#000" stop-opacity="0"/></linearGradient><linearGradient id="linearGradient3221" x1="361.106" x2="361.106" y1="87.05" y2="94.396" gradientTransform="matrix(2.6746618,0,0,2.5459707,-893.97886,-122.09114)" gradientUnits="userSpaceOnUse" xlink:href="#linearGradient3912"/><radialGradient id="radialGradient3226" cx="6.703" cy="73.616" r="7.228" fx="6.703" fy="73.616" gradientTransform="matrix(5.2570306,0,0,1.1067431,28.763637,34.526312)" gradientUnits="userSpaceOnUse" xlink:href="#linearGradient10691-1"/><linearGradient id="linearGradient4084"><stop id="stop4086" offset="0" stop-color="#fff" stop-opacity="1"/><stop id="stop4088" offset=".016" stop-color="#fff" stop-opacity=".235"/><stop id="stop4090" offset=".993" stop-color="#fff" stop-opacity=".157"/><stop id="stop4092" offset="1" stop-color="#fff" stop-opacity=".392"/></linearGradient><linearGradient id="outerBackgroundGradient-5-0"><stop id="stop3864-8-6-4" offset="0" stop-color="#d4d4d4" stop-opacity="1"/><stop id="stop3866-9-1-86" offset="1" stop-color="#fafafa" stop-opacity="1"/></linearGradient><linearGradient id="linearGradient3141" x1="10" x2="20" y1="-3" y2="12" gradientTransform="matrix(3.1000007,0,0,3.136008,-1.1000124,35.088071)" gradientUnits="userSpaceOnUse" xlink:href="#linearGradient6592-2-7"/><linearGradient id="linearGradient3144" x1="24" x2="24" y1="5.753" y2="42.121" gradientTransform="matrix(3.3243244,0,0,2.3243242,-15.783808,-2.2837566)" gradientUnits="userSpaceOnUse" xlink:href="#linearGradient4084"/><linearGradient id="linearGradient3148" x1="15" x2="15" y1="24.619" y2="2" gradientTransform="matrix(2.8500006,0,0,3.2608694,4.150005,42.086958)" gradientUnits="userSpaceOnUse" xlink:href="#outerBackgroundGradient-5-0"/><linearGradient id="linearGradient4054-5"><stop id="stop4056-0" offset="0" stop-color="#fff" stop-opacity="1"/><stop id="stop4058-4" offset=".017" stop-color="#fff" stop-opacity=".235"/><stop id="stop4060-4" offset="1" stop-color="#fff" stop-opacity=".157"/><stop id="stop4062-0" offset="1" stop-color="#fff" stop-opacity=".392"/></linearGradient><linearGradient id="linearGradient3152-7" x1="47.547" x2="47.547" y1="121.841" y2="99.079" gradientTransform="matrix(1.2162163,0,0,0.83783786,2.6663586,14.977385)" gradientUnits="userSpaceOnUse" xlink:href="#linearGradient4054-5"/><linearGradient id="linearGradient3289" x1="185.258" x2="172.441" y1="25.016" y2="40.299" gradientTransform="matrix(-6.1822509,0,0,4.0672708,1210.0762,-54.76382)" gradientUnits="userSpaceOnUse" xlink:href="#linearGradient4306"/><linearGradient id="linearGradient3286" x1="182" x2="182" y1="33" y2="24.52" gradientTransform="matrix(-4.6206499,0,0,3.0410545,927.73637,-22.273846)" gradientUnits="userSpaceOnUse" xlink:href="#linearGradient6592-2-7"/></defs><g id="g4268"><g id="g4215"><path id="path2589" fill="url(#radialGradient3226)" fill-opacity="1" fill-rule="nonzero" stroke="none" stroke-width=".8" d="m 102,116 c 0,4.41828 -17.013179,8 -38.000002,8 C 43.013178,124 26,120.41828 26,116 26,111.58172 43.013178,108 63.999998,108 84.986821,108 102,111.58172 102,116 l 0,0 z" display="inline" opacity=".3" overflow="visible" visibility="visible" style="marker:none"/><path id="rect1789" fill="url(#linearGradient3221)" fill-opacity="1" fill-rule="nonzero" stroke="none" stroke-dasharray="none" stroke-dashoffset=".5" stroke-linecap="round" stroke-linejoin="round" stroke-miterlimit="4" stroke-opacity="1" stroke-width=".998" d="m 47.5,97.499139 c 0,0 0.397503,10.838601 -1.50061,13.364911 -1.898112,2.52633 -5.675011,4.13662 -5.675011,4.13662 -2.423623,0.2654 -2.443672,3.5002 0,3.5002 l 47.351051,0 c 2.443672,0 2.424131,-3.23819 0,-3.5002 0,0 -3.776735,-1.6103 -5.674819,-4.13662 C 80.102525,108.33775 80.5,97.499139 80.5,97.499139 l -32.983056,0 -0.01694,0 z" display="inline" enable-background="new" overflow="visible" visibility="visible" style="marker:none"/><path id="rect1789-8" fill="none" fill-opacity="1" fill-rule="nonzero" stroke="#000" stroke-dasharray="none" stroke-dashoffset=".5" stroke-linecap="round" stroke-linejoin="round" stroke-miterlimit="4" stroke-opacity="1" stroke-width="1" d="m 47.5,97.499139 c 0,0 0.397503,10.838601 -1.50061,13.364911 -1.898112,2.52633 -5.675011,4.13662 -5.675011,4.13662 -2.423623,0.2654 -2.443672,3.5002 0,3.5002 l 47.351051,0 c 2.443672,0 2.424131,-3.23819 0,-3.5002 0,0 -3.776735,-1.6103 -5.674819,-4.13662 C 80.102525,108.33775 80.5,97.499139 80.5,97.499139 l -32.983056,0 -0.01694,0 z" clip-rule="nonzero" color="#000" color-interpolation="sRGB" color-interpolation-filters="linearRGB" color-rendering="auto" display="inline" enable-background="new" image-rendering="auto" opacity=".4" overflow="visible" shape-rendering="auto" text-rendering="auto" visibility="visible" style="isolation:auto;mix-blend-mode:normal;solid-color:#000;solid-opacity:1;marker:none"/><rect id="rect2722-7" width="125" height="88" x="1.5" y="9.5" fill="#1a1a1a" fill-opacity="1" stroke="#000" stroke-dasharray="none" stroke-dashoffset=".5" stroke-linecap="round" stroke-linejoin="round" stroke-miterlimit="4" stroke-opacity="1" stroke-width="1" rx="2.5" ry="2.5"/><path id="rect2722-0" fill="url(#linearGradient3148)" fill-opacity="1" stroke="none" d="m 7.000002,16.000002 113.999998,0 0,75 -113.999998,0 z" display="inline"/><rect id="rect6741" width="123" height="86" x="2.5" y="10.5" fill="none" stroke="url(#linearGradient3144)" stroke-dasharray="none" stroke-dashoffset="0" stroke-linecap="round" stroke-linejoin="round" stroke-miterlimit="4" stroke-opacity="1" stroke-width="1" opacity=".2" rx="1.5" ry="1.5"/><path id="rect2722-0-3" fill="#000" fill-opacity="1" fill-rule="nonzero" stroke="none" stroke-dasharray="none" stroke-dashoffset="0" stroke-linecap="butt" stroke-linejoin="miter" stroke-miterlimit="4" stroke-opacity="1" stroke-width="1" d="m 7,16 0,75 114,0 0,-75 -114,0 z m 1,1 112,0 0,73 L 8,90 8,17 Z" clip-rule="nonzero" color="#000" color-interpolation="sRGB" color-interpolation-filters="linearRGB" color-rendering="auto" display="inline" enable-background="accumulate" image-rendering="auto" opacity=".1" overflow="visible" shape-rendering="auto" text-rendering="auto" visibility="visible" style="isolation:auto;mix-blend-mode:normal;solid-color:#000;solid-opacity:1"/><path id="path4419" fill="none" fill-opacity="1" fill-rule="nonzero" stroke="url(#linearGradient3152-7)" stroke-dasharray="none" stroke-dashoffset="0" stroke-linecap="round" stroke-linejoin="round" stroke-miterlimit="4" stroke-opacity="1" stroke-width="1" d="m 48.478516,98.486328 c 0.02065,0.733663 0.08406,2.260412 -0.03125,4.792972 -0.06997,1.53666 -0.199201,3.15889 -0.439454,4.59375 -0.240251,1.43485 -0.530844,2.66645 -1.21875,3.58203 -2.154724,2.86787 -6.078125,4.45312 -6.078124,4.45312 -0.08905,0.0376 -0.183159,0.062 -0.279297,0.0723 -0.78107,0.0855 -0.944221,0.50444 -0.945313,0.87109 -5.46e-4,0.18333 0.05961,0.3357 0.167969,0.44532 0.108361,0.1096 0.276609,0.21679 0.669922,0.21679 l 47.351562,0 c 0.393085,0 0.561397,-0.10695 0.669922,-0.21679 0.108525,-0.10986 0.170455,-0.26169 0.169922,-0.44532 -0.0011,-0.36726 -0.164558,-0.7867 -0.945313,-0.87109 -0.0968,-0.0101 -0.191578,-0.0344 -0.28125,-0.0723 0,0 -3.923422,-1.58525 -6.078124,-4.45312 -0.687899,-0.91557 -0.9785,-2.14718 -1.21875,-3.58203 -0.240252,-1.43485 -0.369484,-3.05709 -0.439454,-4.59375 -0.115315,-2.53256 -0.0519,-4.059308 -0.03125,-4.792972" clip-rule="nonzero" color="#000" color-interpolation="sRGB" color-interpolation-filters="linearRGB" color-rendering="auto" display="inline" enable-background="accumulate" image-rendering="auto" opacity=".3" overflow="visible" shape-rendering="auto" text-rendering="auto" visibility="visible" style="isolation:auto;mix-blend-mode:normal;solid-color:#000;solid-opacity:1;marker:none"/></g><g id="g4258"><path id="path4238" fill="#c6262e" fill-opacity="1" fill-rule="evenodd" stroke="none" stroke-dasharray="none" stroke-dashoffset="0" stroke-linecap="butt" stroke-linejoin="round" stroke-miterlimit="4" stroke-opacity="1" stroke-width="1" d="M 120.5,16.499957 7.4998824,90.5 120.5,90.5 Z m -23,40.50005 0,18.499995 -28,0 z" color="#000" display="inline" enable-background="accumulate" opacity=".9" overflow="visible" visibility="visible" style="marker:none"/><path id="path3981" fill="none" stroke="url(#linearGradient3289)" stroke-linecap="butt" stroke-linejoin="miter" stroke-opacity="1" stroke-width="1" d="M 119.5,18.348844 119.5,89.5 10.84722,89.5 Z" opacity=".5"/><path id="path3981-5" fill="none" stroke="url(#linearGradient3286)" stroke-linecap="butt" stroke-linejoin="miter" stroke-opacity="1" stroke-width="1" d="m 98.5,56.5 0,20 -29.5,0" opacity=".5"/><path id="path4269" fill="none" fill-opacity=".588" fill-rule="evenodd" stroke="#7a0000" stroke-dasharray="none" stroke-dashoffset="0" stroke-linecap="butt" stroke-linejoin="round" stroke-miterlimit="4" stroke-opacity="1" stroke-width="1" d="M 120.5,16.499957 7.4998824,90.5 120.5,90.5 Z m -23,40.50005 0,18.499995 -28,0 z" color="#000" display="inline" enable-background="accumulate" overflow="visible" visibility="visible" style="marker:none"/><path id="rect4273" fill="#000" fill-opacity="1" fill-rule="nonzero" stroke="none" stroke-dasharray="none" stroke-dashoffset="0" stroke-linecap="round" stroke-linejoin="round" stroke-miterlimit="4" stroke-opacity="1" stroke-width="1" d="M 15 87 L 15 90 L 16 90 L 16 87 L 15 87 z M 20 87 L 20 90 L 21 90 L 21 87 L 20 87 z M 25 87 L 25 90 L 26 90 L 26 87 L 25 87 z M 30 87 L 30 90 L 31 90 L 31 87 L 30 87 z M 35 87 L 35 90 L 36 90 L 36 87 L 35 87 z M 40 87 L 40 90 L 41 90 L 41 87 L 40 87 z M 45 87 L 45 90 L 46 90 L 46 87 L 45 87 z M 50 87 L 50 90 L 51 90 L 51 87 L 50 87 z M 55 87 L 55 90 L 56 90 L 56 87 L 55 87 z M 60 87 L 60 90 L 61 90 L 61 87 L 60 87 z M 65 87 L 65 90 L 66 90 L 66 87 L 65 87 z M 70 87 L 70 90 L 71 90 L 71 87 L 70 87 z M 75 87 L 75 90 L 76 90 L 76 87 L 75 87 z M 80 87 L 80 90 L 81 90 L 81 87 L 80 87 z M 85 87 L 85 90 L 86 90 L 86 87 L 85 87 z M 90 87 L 90 90 L 91 90 L 91 87 L 90 87 z M 95 87 L 95 90 L 96 90 L 96 87 L 95 87 z M 100 87 L 100 90 L 101 90 L 101 87 L 100 87 z M 105 87 L 105 90 L 106 90 L 106 87 L 105 87 z M 110 87 L 110 90 L 111 90 L 111 87 L 110 87 z M 115 87 L 115 90 L 116 90 L 116 87 L 115 87 z" clip-rule="nonzero" color="#000" color-interpolation="sRGB" color-interpolation-filters="linearRGB" color-rendering="auto" display="inline" enable-background="accumulate" image-rendering="auto" opacity=".3" overflow="visible" shape-rendering="auto" text-rendering="auto" visibility="visible" style="isolation:auto;mix-blend-mode:normal;solid-color:#000;solid-opacity:1;marker:none"/><path id="path4300" fill="#000" fill-opacity="1" fill-rule="nonzero" stroke="none" stroke-dasharray="none" stroke-dashoffset="0" stroke-linecap="round" stroke-linejoin="round" stroke-miterlimit="4" stroke-opacity="1" stroke-width="1" d="M 117 20 L 117 21 L 120 21 L 120 20 L 117 20 z M 117 25 L 117 26 L 120 26 L 120 25 L 117 25 z M 117 30 L 117 31 L 120 31 L 120 30 L 117 30 z M 117 35 L 117 36 L 120 36 L 120 35 L 117 35 z M 117 40 L 117 41 L 120 41 L 120 40 L 117 40 z M 117 45 L 117 46 L 120 46 L 120 45 L 117 45 z M 117 50 L 117 51 L 120 51 L 120 50 L 117 50 z M 117 55 L 117 56 L 120 56 L 120 55 L 117 55 z M 117 60 L 117 61 L 120 61 L 120 60 L 117 60 z M 117 65 L 117 66 L 120 66 L 120 65 L 117 65 z M 117 70 L 117 71 L 120 71 L 120 70 L 117 70 z M 117 75 L 117 76 L 120 76 L 120 75 L 117 75 z M 117 80 L 117 81 L 120 81 L 120 80 L 117 80 z M 117 85 L 117 86 L 120 86 L 120 85 L 117 85 z" clip-rule="nonzero" color="#000" color-interpolation="sRGB" color-interpolation-filters="linearRGB" color-rendering="auto" display="inline" enable-background="accumulate" image-rendering="auto" opacity=".3" overflow="visible" shape-rendering="auto" text-rendering="auto" visibility="visible" style="isolation:auto;mix-blend-mode:normal;solid-color:#000;solid-opacity:1;marker:none"/><path id="path4302" fill="#fff" fill-opacity="1" fill-rule="nonzero" stroke="none" stroke-dasharray="none" stroke-dashoffset="0" stroke-linecap="round" stroke-linejoin="round" stroke-miterlimit="4" stroke-opacity="1" stroke-width="1" d="M 117 21 L 117 22 L 120 22 L 120 21 L 117 21 z M 117 26 L 117 27 L 120 27 L 120 26 L 117 26 z M 117 31 L 117 32 L 120 32 L 120 31 L 117 31 z M 117 36 L 117 37 L 120 37 L 120 36 L 117 36 z M 117 41 L 117 42 L 120 42 L 120 41 L 117 41 z M 117 46 L 117 47 L 120 47 L 120 46 L 117 46 z M 117 51 L 117 52 L 120 52 L 120 51 L 117 51 z M 117 56 L 117 57 L 120 57 L 120 56 L 117 56 z M 117 61 L 117 62 L 120 62 L 120 61 L 117 61 z M 117 66 L 117 67 L 120 67 L 120 66 L 117 66 z M 117 71 L 117 72 L 120 72 L 120 71 L 117 71 z M 117 76 L 117 77 L 120 77 L 120 76 L 117 76 z M 117 81 L 117 82 L 120 82 L 120 81 L 117 81 z M 117 86 L 117 87 L 120 87 L 120 86 L 117 86 z" clip-rule="nonzero" color="#000" color-interpolation="sRGB" color-interpolation-filters="linearRGB" color-rendering="auto" display="inline" enable-background="accumulate" image-rendering="auto" opacity=".3" overflow="visible" shape-rendering="auto" text-rendering="auto" visibility="visible" style="isolation:auto;mix-blend-mode:normal;solid-color:#000;solid-opacity:1;marker:none"/><path id="path4304" fill="#fff" fill-opacity="1" fill-rule="nonzero" stroke="none" stroke-dasharray="none" stroke-dashoffset="0" stroke-linecap="round" stroke-linejoin="round" stroke-miterlimit="4" stroke-opacity="1" stroke-width="1" d="M 16 87 L 16 90 L 17 90 L 17 87 L 16 87 z M 21 87 L 21 90 L 22 90 L 22 87 L 21 87 z M 26 87 L 26 90 L 27 90 L 27 87 L 26 87 z M 31 87 L 31 90 L 32 90 L 32 87 L 31 87 z M 36 87 L 36 90 L 37 90 L 37 87 L 36 87 z M 41 87 L 41 90 L 42 90 L 42 87 L 41 87 z M 46 87 L 46 90 L 47 90 L 47 87 L 46 87 z M 51 87 L 51 90 L 52 90 L 52 87 L 51 87 z M 56 87 L 56 90 L 57 90 L 57 87 L 56 87 z M 61 87 L 61 90 L 62 90 L 62 87 L 61 87 z M 66 87 L 66 90 L 67 90 L 67 87 L 66 87 z M 71 87 L 71 90 L 72 90 L 72 87 L 71 87 z M 76 87 L 76 90 L 77 90 L 77 87 L 76 87 z M 81 87 L 81 90 L 82 90 L 82 87 L 81 87 z M 86 87 L 86 90 L 87 90 L 87 87 L 86 87 z M 91 87 L 91 90 L 92 90 L 92 87 L 91 87 z M 96 87 L 96 90 L 97 90 L 97 87 L 96 87 z M 101 87 L 101 90 L 102 90 L 102 87 L 101 87 z M 106 87 L 106 90 L 107 90 L 107 87 L 106 87 z M 111 87 L 111 90 L 112 90 L 112 87 L 111 87 z M 116 87 L 116 90 L 117 90 L 117 87 L 116 87 z" clip-rule="nonzero" color="#000" color-interpolation="sRGB" color-interpolation-filters="linearRGB" color-rendering="auto" display="inline" enable-background="accumulate" image-rendering="auto" opacity=".3" overflow="visible" shape-rendering="auto" text-rendering="auto" visibility="visible" style="isolation:auto;mix-blend-mode:normal;solid-color:#000;solid-opacity:1;marker:none"/></g></g></svg>