<svg xmlns="http://www.w3.org/2000/svg" xmlns:svg="http://www.w3.org/2000/svg" xmlns:xlink="http://www.w3.org/1999/xlink" id="svg4569" width="128" height="128" version="1.0"><metadata id="metadata46"/><defs id="defs4571"><linearGradient id="linearGradient4306"><stop id="stop4308" offset="0" stop-color="#fff" stop-opacity="1"/><stop id="stop4310" offset="1" stop-color="#fff" stop-opacity="0"/></linearGradient><linearGradient id="linearGradient3912"><stop id="stop3914" offset="0" stop-color="#273445" stop-opacity="1"/><stop id="stop3916" offset=".35" stop-color="#667885" stop-opacity="1"/><stop id="stop3918" offset=".494" stop-color="#95a3ab" stop-opacity="1"/><stop id="stop3920" offset=".589" stop-color="#667885" stop-opacity="1"/><stop id="stop3922" offset="1" stop-color="#485a6c" stop-opacity="1"/></linearGradient><linearGradient id="linearGradient6592-2-7"><stop id="stop6594-0-2" offset="0" stop-color="#fff" stop-opacity=".275"/><stop id="stop6596-2-5" offset="1" stop-color="#fff" stop-opacity="0"/></linearGradient><linearGradient id="linearGradient10691-1"><stop id="stop10693-3" offset="0" stop-color="#000" stop-opacity="1"/><stop id="stop10695-1" offset="1" stop-color="#000" stop-opacity="0"/></linearGradient><linearGradient id="linearGradient3221" x1="361.106" x2="361.106" y1="87.05" y2="94.396" gradientTransform="matrix(2.6746618,0,0,2.5459707,-893.97886,-122.09114)" gradientUnits="userSpaceOnUse" xlink:href="#linearGradient3912"/><radialGradient id="radialGradient3226" cx="6.703" cy="73.616" r="7.228" fx="6.703" fy="73.616" gradientTransform="matrix(5.2570306,0,0,1.1067431,28.763637,34.526312)" gradientUnits="userSpaceOnUse" xlink:href="#linearGradient10691-1"/><linearGradient id="linearGradient4084"><stop id="stop4086" offset="0" stop-color="#fff" stop-opacity="1"/><stop id="stop4088" offset=".016" stop-color="#fff" stop-opacity=".235"/><stop id="stop4090" offset=".993" stop-color="#fff" stop-opacity=".157"/><stop id="stop4092" offset="1" stop-color="#fff" stop-opacity=".392"/></linearGradient><linearGradient id="outerBackgroundGradient-5-0"><stop id="stop3864-8-6-4" offset="0" stop-color="#d4d4d4" stop-opacity="1"/><stop id="stop3866-9-1-86" offset="1" stop-color="#fafafa" stop-opacity="1"/></linearGradient><linearGradient id="linearGradient3141" x1="10" x2="20" y1="-3" y2="12" gradientTransform="matrix(3.1000007,0,0,3.136008,-1.1000124,35.088071)" gradientUnits="userSpaceOnUse" xlink:href="#linearGradient6592-2-7"/><linearGradient id="linearGradient3144" x1="24" x2="24" y1="5.753" y2="42.121" gradientTransform="matrix(3.3243244,0,0,2.3243242,-15.783808,-2.2837566)" gradientUnits="userSpaceOnUse" xlink:href="#linearGradient4084"/><linearGradient id="linearGradient3148" x1="15" x2="15" y1="24.619" y2="2" gradientTransform="matrix(2.8500006,0,0,3.2608694,4.150005,42.086958)" gradientUnits="userSpaceOnUse" xlink:href="#outerBackgroundGradient-5-0"/><linearGradient id="linearGradient4054-5"><stop id="stop4056-0" offset="0" stop-color="#fff" stop-opacity="1"/><stop id="stop4058-4" offset=".017" stop-color="#fff" stop-opacity=".235"/><stop id="stop4060-4" offset="1" stop-color="#fff" stop-opacity=".157"/><stop id="stop4062-0" offset="1" stop-color="#fff" stop-opacity=".392"/></linearGradient><linearGradient id="linearGradient3152-7" x1="47.547" x2="47.547" y1="121.841" y2="99.079" gradientTransform="matrix(1.2162163,0,0,0.83783786,2.6663586,14.977385)" gradientUnits="userSpaceOnUse" xlink:href="#linearGradient4054-5"/><linearGradient id="linearGradient3289" x1="185.258" x2="172.441" y1="25.016" y2="40.299" gradientTransform="matrix(4.8244191,0,0,4.8244205,-842.85923,-64.91768)" gradientUnits="userSpaceOnUse" xlink:href="#linearGradient4306"/><linearGradient id="linearGradient3286" x1="182" x2="182" y1="33" y2="24.52" gradientTransform="matrix(3.6057986,0,0,3.6071671,-622.53078,-26.37948)" gradientUnits="userSpaceOnUse" xlink:href="#linearGradient6592-2-7"/><linearGradient id="linearGradient4231" x1="64" x2="64" y1="74" y2="94" gradientUnits="userSpaceOnUse" xlink:href="#linearGradient4306"/></defs><g id="g4254"><path d="m 102,116 c 0,4.41828 -17.013179,8 -38.000002,8 C 43.013178,124 26,120.41828 26,116 26,111.58172 43.013178,108 63.999998,108 84.986821,108 102,111.58172 102,116 l 0,0 z" style="marker:none" id="path2589" fill="url(#radialGradient3226)" fill-opacity="1" fill-rule="nonzero" stroke="none" stroke-width=".8" display="inline" opacity=".3" overflow="visible" visibility="visible"/><path id="rect1789" fill="url(#linearGradient3221)" fill-opacity="1" fill-rule="nonzero" stroke="none" stroke-dasharray="none" stroke-dashoffset=".5" stroke-linecap="round" stroke-linejoin="round" stroke-miterlimit="4" stroke-opacity="1" stroke-width=".998" d="m 47.5,97.499139 c 0,0 0.397503,10.838601 -1.50061,13.364911 -1.898112,2.52633 -5.675011,4.13662 -5.675011,4.13662 -2.423623,0.2654 -2.443672,3.5002 0,3.5002 l 47.351051,0 c 2.443672,0 2.424131,-3.23819 0,-3.5002 0,0 -3.776735,-1.6103 -5.674819,-4.13662 C 80.102525,108.33775 80.5,97.499139 80.5,97.499139 l -32.983056,0 -0.01694,0 z" display="inline" enable-background="new" overflow="visible" visibility="visible" style="marker:none"/><path clip-rule="nonzero" style="isolation:auto;mix-blend-mode:normal;solid-color:#000;solid-opacity:1;marker:none" id="rect1789-8" fill="none" fill-opacity="1" fill-rule="nonzero" stroke="#000" stroke-dasharray="none" stroke-dashoffset=".5" stroke-linecap="round" stroke-linejoin="round" stroke-miterlimit="4" stroke-opacity="1" stroke-width="1" d="m 47.5,97.499139 c 0,0 0.397503,10.838601 -1.50061,13.364911 -1.898112,2.52633 -5.675011,4.13662 -5.675011,4.13662 -2.423623,0.2654 -2.443672,3.5002 0,3.5002 l 47.351051,0 c 2.443672,0 2.424131,-3.23819 0,-3.5002 0,0 -3.776735,-1.6103 -5.674819,-4.13662 C 80.102525,108.33775 80.5,97.499139 80.5,97.499139 l -32.983056,0 -0.01694,0 z" color="#000" color-interpolation="sRGB" color-interpolation-filters="linearRGB" color-rendering="auto" display="inline" enable-background="new" image-rendering="auto" opacity=".4" overflow="visible" shape-rendering="auto" text-rendering="auto" visibility="visible"/><rect id="rect2722-7" width="125" height="88" x="1.5" y="9.5" fill="#1a1a1a" fill-opacity="1" stroke="#000" stroke-dasharray="none" stroke-dashoffset=".5" stroke-linecap="round" stroke-linejoin="round" stroke-miterlimit="4" stroke-opacity="1" stroke-width="1" rx="2.5" ry="2.5"/><path id="rect2722-0" fill="url(#linearGradient3148)" fill-opacity="1" stroke="none" d="m 7.000002,16.000002 113.999998,0 0,75 -113.999998,0 z" display="inline"/><rect id="rect6741" width="123" height="86" x="2.5" y="10.5" fill="none" stroke="url(#linearGradient3144)" stroke-dasharray="none" stroke-dashoffset="0" stroke-linecap="round" stroke-linejoin="round" stroke-miterlimit="4" stroke-opacity="1" stroke-width="1" opacity=".2" rx="1.5" ry="1.5"/><path id="rect2722-0-3" fill="#000" fill-opacity="1" fill-rule="nonzero" stroke="none" stroke-dasharray="none" stroke-dashoffset="0" stroke-linecap="butt" stroke-linejoin="miter" stroke-miterlimit="4" stroke-opacity="1" stroke-width="1" d="m 7,16 0,75 114,0 0,-75 -114,0 z m 1,1 112,0 0,73 L 8,90 8,17 Z" clip-rule="nonzero" color="#000" color-interpolation="sRGB" color-interpolation-filters="linearRGB" color-rendering="auto" display="inline" enable-background="accumulate" image-rendering="auto" opacity=".1" overflow="visible" shape-rendering="auto" text-rendering="auto" visibility="visible" style="isolation:auto;mix-blend-mode:normal;solid-color:#000;solid-opacity:1"/><path id="path4419" fill="none" fill-opacity="1" fill-rule="nonzero" stroke="url(#linearGradient3152-7)" stroke-dasharray="none" stroke-dashoffset="0" stroke-linecap="round" stroke-linejoin="round" stroke-miterlimit="4" stroke-opacity="1" stroke-width="1" d="m 48.478516,98.486328 c 0.02065,0.733663 0.08406,2.260412 -0.03125,4.792972 -0.06997,1.53666 -0.199201,3.15889 -0.439454,4.59375 -0.240251,1.43485 -0.530844,2.66645 -1.21875,3.58203 -2.154724,2.86787 -6.078125,4.45312 -6.078124,4.45312 -0.08905,0.0376 -0.183159,0.062 -0.279297,0.0723 -0.78107,0.0855 -0.944221,0.50444 -0.945313,0.87109 -5.46e-4,0.18333 0.05961,0.3357 0.167969,0.44532 0.108361,0.1096 0.276609,0.21679 0.669922,0.21679 l 47.351562,0 c 0.393085,0 0.561397,-0.10695 0.669922,-0.21679 0.108525,-0.10986 0.170455,-0.26169 0.169922,-0.44532 -0.0011,-0.36726 -0.164558,-0.7867 -0.945313,-0.87109 -0.0968,-0.0101 -0.191578,-0.0344 -0.28125,-0.0723 0,0 -3.923422,-1.58525 -6.078124,-4.45312 -0.687899,-0.91557 -0.9785,-2.14718 -1.21875,-3.58203 -0.240252,-1.43485 -0.369484,-3.05709 -0.439454,-4.59375 -0.115315,-2.53256 -0.0519,-4.059308 -0.03125,-4.792972" clip-rule="nonzero" color="#000" color-interpolation="sRGB" color-interpolation-filters="linearRGB" color-rendering="auto" display="inline" enable-background="accumulate" image-rendering="auto" opacity=".3" overflow="visible" shape-rendering="auto" text-rendering="auto" visibility="visible" style="isolation:auto;mix-blend-mode:normal;solid-color:#000;solid-opacity:1;marker:none"/><g id="g4247" transform="translate(0,1.995575)"><rect id="rect4221" width="103" height="12.004" x="12.5" y="71.5" fill="#c6262e" fill-opacity="1" fill-rule="nonzero" stroke="none" stroke-dasharray="none" stroke-dashoffset="0" stroke-linecap="round" stroke-linejoin="round" stroke-miterlimit="4" stroke-opacity="1" stroke-width="1" clip-rule="nonzero" color="#000" color-interpolation="sRGB" color-interpolation-filters="linearRGB" color-rendering="auto" display="inline" enable-background="accumulate" image-rendering="auto" opacity=".9" overflow="visible" shape-rendering="auto" text-rendering="auto" visibility="visible" style="isolation:auto;mix-blend-mode:normal;solid-color:#000;solid-opacity:1;marker:none"/><path id="rect4273" fill="#000" fill-opacity="1" fill-rule="nonzero" stroke="none" stroke-dasharray="none" stroke-dashoffset="0" stroke-linecap="round" stroke-linejoin="round" stroke-miterlimit="4" stroke-opacity="1" stroke-width="1" d="m 15,80 0,3 1,0 0,-3 -1,0 z m 5,0 0,3 1,0 0,-3 -1,0 z m 5,0 0,3 1,0 0,-3 -1,0 z m 5,0 0,3 1,0 0,-3 -1,0 z m 5,0 0,3 1,0 0,-3 -1,0 z m 5,0 0,3 1,0 0,-3 -1,0 z m 5,0 0,3 1,0 0,-3 -1,0 z m 5,0 0,3 1,0 0,-3 -1,0 z m 5,0 0,3 1,0 0,-3 -1,0 z m 5,0 0,3 1,0 0,-3 -1,0 z m 5,0 0,3 1,0 0,-3 -1,0 z m 5,0 0,3 1,0 0,-3 -1,0 z m 5,0 0,3 1,0 0,-3 -1,0 z m 5,0 0,3 1,0 0,-3 -1,0 z m 5,0 0,3 1,0 0,-3 -1,0 z m 5,0 0,3 1,0 0,-3 -1,0 z m 5,0 0,3 1,0 0,-3 -1,0 z m 5,0 0,3 1,0 0,-3 -1,0 z m 5,0 0,3 1,0 0,-3 -1,0 z m 5,0 0,3 1,0 0,-3 -1,0 z" clip-rule="nonzero" color="#000" color-interpolation="sRGB" color-interpolation-filters="linearRGB" color-rendering="auto" display="inline" enable-background="accumulate" image-rendering="auto" opacity=".3" overflow="visible" shape-rendering="auto" text-rendering="auto" visibility="visible" style="isolation:auto;mix-blend-mode:normal;solid-color:#000;solid-opacity:1;marker:none"/><rect id="rect4217" width="103" height="12.004" x="12.5" y="71.5" fill="none" fill-opacity="1" fill-rule="nonzero" stroke="#7a0000" stroke-dasharray="none" stroke-dashoffset="0" stroke-linecap="round" stroke-linejoin="round" stroke-miterlimit="4" stroke-opacity="1" stroke-width="1" clip-rule="nonzero" color="#000" color-interpolation="sRGB" color-interpolation-filters="linearRGB" color-rendering="auto" display="inline" enable-background="accumulate" image-rendering="auto" opacity="1" overflow="visible" shape-rendering="auto" text-rendering="auto" visibility="visible" style="isolation:auto;mix-blend-mode:normal;solid-color:#000;solid-opacity:1;marker:none"/><rect id="rect4223" width="101" height="10" x="13.5" y="72.5" fill="none" fill-opacity="1" fill-rule="nonzero" stroke="url(#linearGradient4231)" stroke-dasharray="none" stroke-dashoffset="0" stroke-linecap="round" stroke-linejoin="round" stroke-miterlimit="4" stroke-opacity="1" stroke-width="1" clip-rule="nonzero" color="#000" color-interpolation="sRGB" color-interpolation-filters="linearRGB" color-rendering="auto" display="inline" enable-background="accumulate" image-rendering="auto" opacity=".4" overflow="visible" shape-rendering="auto" text-rendering="auto" visibility="visible" style="isolation:auto;mix-blend-mode:normal;solid-color:#000;solid-opacity:1;marker:none"/><path id="path4245" fill="#fff" fill-opacity="1" fill-rule="nonzero" stroke="none" stroke-dasharray="none" stroke-dashoffset="0" stroke-linecap="round" stroke-linejoin="round" stroke-miterlimit="4" stroke-opacity="1" stroke-width="1" d="m 16,80 0,3 1,0 0,-3 -1,0 z m 5,0 0,3 1,0 0,-3 -1,0 z m 5,0 0,3 1,0 0,-3 -1,0 z m 5,0 0,3 1,0 0,-3 -1,0 z m 5,0 0,3 1,0 0,-3 -1,0 z m 5,0 0,3 1,0 0,-3 -1,0 z m 5,0 0,3 1,0 0,-3 -1,0 z m 5,0 0,3 1,0 0,-3 -1,0 z m 5,0 0,3 1,0 0,-3 -1,0 z m 5,0 0,3 1,0 0,-3 -1,0 z m 5,0 0,3 1,0 0,-3 -1,0 z m 5,0 0,3 1,0 0,-3 -1,0 z m 5,0 0,3 1,0 0,-3 -1,0 z m 5,0 0,3 1,0 0,-3 -1,0 z m 5,0 0,3 1,0 0,-3 -1,0 z m 5,0 0,3 1,0 0,-3 -1,0 z m 5,0 0,3 1,0 0,-3 -1,0 z m 5,0 0,3 1,0 0,-3 -1,0 z m 5,0 0,3 1,0 0,-3 -1,0 z m 5,0 0,3 1,0 0,-3 -1,0 z" clip-rule="nonzero" color="#000" color-interpolation="sRGB" color-interpolation-filters="linearRGB" color-rendering="auto" display="inline" enable-background="accumulate" image-rendering="auto" opacity=".3" overflow="visible" shape-rendering="auto" text-rendering="auto" visibility="visible" style="isolation:auto;mix-blend-mode:normal;solid-color:#000;solid-opacity:1;marker:none"/></g></g></svg>