<svg xmlns="http://www.w3.org/2000/svg" xmlns:svg="http://www.w3.org/2000/svg" xmlns:xlink="http://www.w3.org/1999/xlink" id="svg4032" width="32" height="32" version="1.1"><metadata id="metadata41"/><defs id="defs4034"><linearGradient id="linearGradient4293"><stop id="stop4295" offset="0" stop-color="#fff" stop-opacity="1"/><stop id="stop4297" offset=".034" stop-color="#fff" stop-opacity=".235"/><stop id="stop4299" offset=".969" stop-color="#fff" stop-opacity=".157"/><stop id="stop4301" offset="1" stop-color="#fff" stop-opacity=".392"/></linearGradient><linearGradient id="linearGradient3223"><stop id="stop3225" offset="0" stop-color="#fff" stop-opacity="1"/><stop id="stop3227" offset=".015" stop-color="#fff" stop-opacity=".235"/><stop id="stop3229" offset=".996" stop-color="#fff" stop-opacity=".157"/><stop id="stop3231" offset="1" stop-color="#fff" stop-opacity=".392"/></linearGradient><linearGradient id="linearGradient3178"><stop id="stop3180" offset="0" stop-color="#273445" stop-opacity="1"/><stop id="stop3184" offset=".24" stop-color="#95a3ab" stop-opacity="1"/><stop id="stop3186" offset=".335" stop-color="#667885" stop-opacity="1"/><stop id="stop3188" offset="1" stop-color="#485a6c" stop-opacity="1"/></linearGradient><linearGradient id="linearGradient10691-1"><stop id="stop10693-3" offset="0" stop-color="#000" stop-opacity="1"/><stop id="stop10695-1" offset="1" stop-color="#000" stop-opacity="0"/></linearGradient><linearGradient id="linearGradient3924-1"><stop id="stop3926-3" offset="0" stop-color="#fff" stop-opacity="1"/><stop id="stop3928-91" offset=".063" stop-color="#fff" stop-opacity=".235"/><stop id="stop3930-6" offset=".951" stop-color="#fff" stop-opacity=".157"/><stop id="stop3932-6" offset="1" stop-color="#fff" stop-opacity=".392"/></linearGradient><linearGradient id="outerBackgroundGradient-5-0"><stop id="stop3864-8-6-4" offset="0" stop-color="#261e2b" stop-opacity="1"/><stop id="stop3866-9-1-86" offset="1" stop-color="#352f39" stop-opacity="1"/></linearGradient><linearGradient id="linearGradient3880"><stop id="stop3883" offset="0" stop-color="#fff" stop-opacity="1"/><stop id="stop3885" offset="1" stop-color="#fff" stop-opacity="0"/></linearGradient><linearGradient id="linearGradient10691-1-8"><stop id="stop10693-3-7" offset="0" stop-color="#000" stop-opacity="1"/><stop id="stop10695-1-6" offset="1" stop-color="#000" stop-opacity="0"/></linearGradient><linearGradient id="linearGradient3912"><stop id="stop3914" offset="0" stop-color="#787878" stop-opacity="1"/><stop id="stop3916" offset=".35" stop-color="#bebebe" stop-opacity="1"/><stop id="stop3918" offset=".494" stop-color="#c8c8c8" stop-opacity="1"/><stop id="stop3920" offset=".589" stop-color="#e6e6e6" stop-opacity="1"/><stop id="stop3922" offset="1" stop-color="#8c8c8c" stop-opacity="1"/></linearGradient><linearGradient id="linearGradient3138" x1="397.073" x2="397.073" y1="87.076" y2="95.366" gradientTransform="matrix(0.68184398,0,0,0.6063426,-254.2496,-27.797984)" gradientUnits="userSpaceOnUse" xlink:href="#linearGradient3178"/><radialGradient id="radialGradient3143" cx="6.703" cy="73.616" r="7.228" fx="6.703" fy="73.616" gradientTransform="matrix(1.2450862,0,0,0.27668578,7.6545456,8.631578)" gradientUnits="userSpaceOnUse" xlink:href="#linearGradient10691-1"/><linearGradient id="linearGradient3146" x1="10" x2="20" y1="-3" y2="12" gradientTransform="matrix(1.1500002,0,0,1.1666666,-52.992924,5.3266864)" gradientUnits="userSpaceOnUse" xlink:href="#linearGradient3880"/><linearGradient id="linearGradient3149" x1="24" x2="24" y1="5" y2="43" gradientTransform="matrix(1.2162163,0,0,0.83783786,-58.032119,-8.1147456)" gradientUnits="userSpaceOnUse" xlink:href="#linearGradient3924-1"/><linearGradient id="linearGradient3153" x1="15" x2="15" y1="24.619" y2="2" gradientTransform="matrix(1.0500002,0,0,1.2173913,-50.892923,7.7324834)" gradientUnits="userSpaceOnUse" xlink:href="#outerBackgroundGradient-5-0"/><linearGradient id="linearGradient3157" x1="24.81" x2="24.81" y1="51.15" y2="42.989" gradientTransform="matrix(0.76735295,0,0,0.517399,-2.4164796,1.589522)" gradientUnits="userSpaceOnUse" xlink:href="#linearGradient4293"/><linearGradient id="linearGradient3161" x1="361.106" x2="361.106" y1="87.05" y2="94.396" gradientTransform="matrix(0.9964089,0,0,1.0001438,-385.72492,-58.019364)" gradientUnits="userSpaceOnUse" xlink:href="#linearGradient3912"/><radialGradient id="radialGradient3164" cx="6.703" cy="73.616" r="7.228" fx="6.703" fy="73.616" gradientTransform="matrix(1.9368007,0,0,0.4150287,-41.824738,5.4407184)" gradientUnits="userSpaceOnUse" xlink:href="#linearGradient10691-1-8"/><linearGradient id="linearGradient3200" x1="24" x2="24" y1="6.392" y2="41.423" gradientTransform="matrix(0.78378391,0,0,0.54054052,-2.8108185,0.52703318)" gradientUnits="userSpaceOnUse" xlink:href="#linearGradient3223"/><linearGradient id="outerBackgroundGradient-5-0-2"><stop id="stop3864-8-6-4-7" offset="0" stop-color="#d4d4d4" stop-opacity="1"/><stop id="stop3866-9-1-86-7" offset="1" stop-color="#fafafa" stop-opacity="1"/></linearGradient><linearGradient id="linearGradient3248" x1="15" x2="15" y1="24.619" y2="2" gradientTransform="matrix(0.70000013,0,0,0.82608695,1.299998,10.608695)" gradientUnits="userSpaceOnUse" xlink:href="#outerBackgroundGradient-5-0-2"/><linearGradient id="linearGradient3880-3"><stop id="stop3883-1" offset="0" stop-color="#fff" stop-opacity="1"/><stop id="stop3885-5" offset="1" stop-color="#fff" stop-opacity="0"/></linearGradient><linearGradient id="linearGradient3368" x1="10" x2="20" y1="-3" y2="12" gradientTransform="matrix(0.75000013,0,0,0.77777772,0.27110116,9.2222216)" gradientUnits="userSpaceOnUse" xlink:href="#linearGradient3880-3"/><linearGradient id="linearGradient3157-8" x1="24.81" x2="24.81" y1="51.419" y2="42.989" gradientTransform="matrix(1.2162163,0,0,0.83783786,-58.032119,-8.1147456)" gradientUnits="userSpaceOnUse" xlink:href="#linearGradient4054-4"/><linearGradient id="linearGradient4054-4"><stop id="stop4056-5" offset="0" stop-color="#fff" stop-opacity="1"/><stop id="stop4058-9" offset=".063" stop-color="#fff" stop-opacity=".235"/><stop id="stop4060-0" offset=".969" stop-color="#fff" stop-opacity=".157"/><stop id="stop4062-1" offset="1" stop-color="#fff" stop-opacity=".392"/></linearGradient><linearGradient id="linearGradient3167" x1="187.596" x2="171.389" y1="21.948" y2="39.46" gradientTransform="matrix(-1.3129651,0,0,0.87530996,260.45361,-9.4190373)" gradientUnits="userSpaceOnUse" xlink:href="#linearGradient3880"/><linearGradient id="linearGradient3164" x1="182" x2="182" y1="33" y2="24.52" gradientTransform="matrix(-0.87273137,0,0,0.87273145,180.89984,-9.1192068)" gradientUnits="userSpaceOnUse" xlink:href="#linearGradient3880"/></defs><g id="g4298"><g id="g4251"><path id="path2589" fill="url(#radialGradient3143)" fill-opacity="1" fill-rule="nonzero" stroke="none" stroke-width=".8" d="m 25,29 c 0,1.10457 -4.029438,2 -9.000001,2 C 11.029436,31 7,30.10457 7,29 7,27.895431 11.029436,27 15.999999,27 20.970562,27 25,27.895431 25,29 l 0,0 z" display="inline" opacity=".3" overflow="visible" visibility="visible" style="marker:none"/><path id="rect1789-8" fill="url(#linearGradient3138)" fill-opacity="1" fill-rule="nonzero" stroke="none" stroke-dasharray="none" stroke-dashoffset=".5" stroke-linecap="round" stroke-linejoin="round" stroke-miterlimit="4" stroke-opacity="1" stroke-width=".998" d="m 11.798578,24.5 c 0,0 0.097,1.898544 -0.386813,2.5 -0.483816,0.601454 -1.4465228,0.5 -1.4465228,0.5 -0.617765,0.06319 -0.622875,2 0,2 l 12.0694668,0 c 0.622876,0 0.617894,-1.937619 0,-2 0,0 -0.962664,0.10147 -1.446474,-0.5 -0.48381,-0.601454 -0.386863,-2.5 -0.386863,-2.5 l -8.402794,0 z" color="#000" display="inline" enable-background="new" overflow="visible" visibility="visible" style="marker:none"/><path id="path4050" fill="none" stroke="url(#linearGradient3157)" stroke-dasharray="none" stroke-dashoffset="0" stroke-linecap="round" stroke-linejoin="round" stroke-miterlimit="4" stroke-opacity="1" stroke-width="1" d="m 12.786173,22.208804 c 0,0 0.0018,2.844043 -0.01971,3.261387 -0.0197,0.38166 -0.05573,0.786402 -0.1183,1.157888 -0.06257,0.371488 -0.197167,0.651867 -0.441872,0.988014 -0.540042,0.741845 -1.337546,0.864844 -1.66431,0.883907 l 10.916038,0 C 21.131255,28.48094 20.368535,28.288364 19.8285,27.546516 19.583798,27.210369 19.41441,26.999566 19.35184,26.628079 19.28928,26.256594 19.25324,25.851851 19.23354,25.470191 19.212,25.052847 19.21383,22.208804 19.21383,22.208804 Z" color="#000" display="inline" enable-background="accumulate" opacity=".3" overflow="visible" visibility="visible" style="marker:none"/><path id="rect1789-8-2" fill="none" fill-opacity="1" fill-rule="nonzero" stroke="#000" stroke-dasharray="none" stroke-dashoffset=".5" stroke-linecap="round" stroke-linejoin="round" stroke-miterlimit="4" stroke-opacity="1" stroke-width=".998" d="m 11.798578,24.5 c 0,0 0.097,1.898544 -0.386813,2.5 -0.483816,0.601454 -1.4465228,0.5 -1.4465228,0.5 -0.617765,0.06319 -0.622875,2 0,2 l 12.0694668,0 c 0.622876,0 0.617894,-1.937619 0,-2 0,0 -0.962664,0.10147 -1.446474,-0.5 -0.48381,-0.601454 -0.386863,-2.5 -0.386863,-2.5 l -8.402794,0 z" color="#000" display="inline" enable-background="new" opacity=".4" overflow="visible" visibility="visible" style="marker:none"/><rect id="rect2722" width="31" height="22" x=".5" y="2.5" fill="#1a1a1a" fill-opacity="1" stroke="#000" stroke-dasharray="none" stroke-dashoffset=".5" stroke-linecap="round" stroke-linejoin="round" stroke-miterlimit="4" stroke-opacity="1" stroke-width="1" rx=".689" ry=".667"/><rect id="rect6741-9" width="29" height="20" x="1.5" y="3.5" fill="none" stroke="url(#linearGradient3200)" stroke-dasharray="none" stroke-dashoffset="0" stroke-linecap="round" stroke-linejoin="round" stroke-miterlimit="4" stroke-opacity="1" stroke-width="1" opacity=".2" rx="0" ry="0"/><path id="rect2722-0-2" fill="url(#linearGradient3248)" fill-opacity="1" stroke="none" d="M 2,4 30,4 30,23 2,23 Z" display="inline"/><path id="rect2722-0-2-0" fill="#000" fill-opacity="1" fill-rule="nonzero" stroke="none" d="M 2,4 2,23 30,23 30,4 Z M 3,5 29,5 29,22 3,22 Z" color="#000" display="inline" enable-background="accumulate" opacity=".1" overflow="visible" visibility="visible" style="marker:none"/></g><g id="g4286"><path id="path4278" fill="#c6262e" fill-opacity="1" fill-rule="evenodd" stroke="none" stroke-dasharray="none" stroke-dashoffset="0" stroke-linecap="butt" stroke-linejoin="round" stroke-miterlimit="4" stroke-opacity="1" stroke-width="1" d="M 29.5,4.4999303 2.4998864,22.5 29.5,22.5 Z M 23.499998,13.5 l 0,5 -6.999998,0 z" color="#000" display="inline" enable-background="accumulate" opacity=".9" overflow="visible" visibility="visible" style="marker:none"/><path id="path3981-5" fill="none" stroke="url(#linearGradient3164)" stroke-linecap="butt" stroke-linejoin="miter" stroke-opacity="1" stroke-width="1" d="m 24.5,13 0,6.5 -8.5,0" opacity=".4"/><path id="path4233" fill="none" fill-opacity=".588" fill-rule="evenodd" stroke="#7a0000" stroke-dasharray="none" stroke-dashoffset="0" stroke-linecap="butt" stroke-linejoin="round" stroke-miterlimit="4" stroke-opacity="1" stroke-width="1" d="M 29.5,4.4999303 2.4998864,22.5 29.5,22.5 Z M 23.499998,13.5 l 0,5 -6.999998,0 z" color="#000" display="inline" enable-background="accumulate" overflow="visible" visibility="visible" style="marker:none"/><path id="path3981" fill="none" stroke="url(#linearGradient3167)" stroke-linecap="butt" stroke-linejoin="miter" stroke-opacity="1" stroke-width="1" d="M 28.5,6.378466 28.5,21.5 5.8017648,21.5 Z" opacity=".4"/><g id="g4258" opacity=".5"><path id="rect4241" fill="#000" fill-opacity="1" fill-rule="nonzero" stroke="none" stroke-dasharray="none" stroke-dashoffset="0" stroke-linecap="round" stroke-linejoin="round" stroke-miterlimit="4" stroke-opacity="1" stroke-width="1" d="M 8 21 L 8 22 L 9 22 L 9 21 L 8 21 z M 11 21 L 11 22 L 12 22 L 12 21 L 11 21 z M 14 21 L 14 22 L 15 22 L 15 21 L 14 21 z M 17 21 L 17 22 L 18 22 L 18 21 L 17 21 z M 20 21 L 20 22 L 21 22 L 21 21 L 20 21 z M 23 21 L 23 22 L 24 22 L 24 21 L 23 21 z M 26 21 L 26 22 L 27 22 L 27 21 L 26 21 z" clip-rule="nonzero" color="#000" color-interpolation="sRGB" color-interpolation-filters="linearRGB" color-rendering="auto" display="inline" enable-background="accumulate" image-rendering="auto" opacity="1" overflow="visible" shape-rendering="auto" text-rendering="auto" visibility="visible" style="isolation:auto;mix-blend-mode:normal;solid-color:#000;solid-opacity:1;marker:none"/><path id="path4254" fill="#000" fill-opacity="1" fill-rule="nonzero" stroke="none" stroke-dasharray="none" stroke-dashoffset="0" stroke-linecap="round" stroke-linejoin="round" stroke-miterlimit="4" stroke-opacity="1" stroke-width="1" d="m 29,7.0000004 -1,0 0,1 1,0 0,-1 z M 29,10 l -1,0 0,1 1,0 0,-1 z m 0,3 -1,0 0,1 1,0 0,-1 z m 0,3 -1,0 0,1 1,0 0,-1 z m 0,3 -1,0 0,1 1,0 0,-1 z" clip-rule="nonzero" color="#000" color-interpolation="sRGB" color-interpolation-filters="linearRGB" color-rendering="auto" display="inline" enable-background="accumulate" image-rendering="auto" opacity="1" overflow="visible" shape-rendering="auto" text-rendering="auto" visibility="visible" style="isolation:auto;mix-blend-mode:normal;solid-color:#000;solid-opacity:1;marker:none"/></g><g id="g4262" opacity=".05"><path id="path4252" fill="#fff" fill-opacity="1" fill-rule="nonzero" stroke="none" stroke-dasharray="none" stroke-dashoffset="0" stroke-linecap="round" stroke-linejoin="round" stroke-miterlimit="4" stroke-opacity="1" stroke-width="1" d="M 9 21 L 9 22 L 10 22 L 10 21 L 9 21 z M 12 21 L 12 22 L 13 22 L 13 21 L 12 21 z M 15 21 L 15 22 L 16 22 L 16 21 L 15 21 z M 18 21 L 18 22 L 19 22 L 19 21 L 18 21 z M 21 21 L 21 22 L 22 22 L 22 21 L 21 21 z M 24 21 L 24 22 L 25 22 L 25 21 L 24 21 z M 27 21 L 27 22 L 28 22 L 28 21 L 27 21 z" clip-rule="nonzero" color="#000" color-interpolation="sRGB" color-interpolation-filters="linearRGB" color-rendering="auto" display="inline" enable-background="accumulate" image-rendering="auto" opacity="1" overflow="visible" shape-rendering="auto" text-rendering="auto" visibility="visible" style="isolation:auto;mix-blend-mode:normal;solid-color:#000;solid-opacity:1;marker:none"/><path id="path4256" fill="#fff" fill-opacity="1" fill-rule="nonzero" stroke="none" stroke-dasharray="none" stroke-dashoffset="0" stroke-linecap="round" stroke-linejoin="round" stroke-miterlimit="4" stroke-opacity="1" stroke-width="1" d="m 29,8.0000004 -1,0 0,1 1,0 0,-1 z M 29,11 l -1,0 0,1 1,0 0,-1 z m 0,3 -1,0 0,1 1,0 0,-1 z m 0,3 -1,0 0,1 1,0 0,-1 z m 0,3 -1,0 0,1 1,0 0,-1 z" clip-rule="nonzero" color="#000" color-interpolation="sRGB" color-interpolation-filters="linearRGB" color-rendering="auto" display="inline" enable-background="accumulate" image-rendering="auto" opacity="1" overflow="visible" shape-rendering="auto" text-rendering="auto" visibility="visible" style="isolation:auto;mix-blend-mode:normal;solid-color:#000;solid-opacity:1;marker:none"/></g></g></g></svg>