<svg xmlns="http://www.w3.org/2000/svg" xmlns:svg="http://www.w3.org/2000/svg" xmlns:xlink="http://www.w3.org/1999/xlink" id="svg4569" width="64" height="64" version="1.0"><metadata id="metadata54"/><defs id="defs4571"><linearGradient id="linearGradient4188"><stop id="stop4190" offset="0" stop-color="#d4d4d4" stop-opacity="1"/><stop id="stop4192" offset="1" stop-color="#fafafa" stop-opacity="1"/></linearGradient><linearGradient id="linearGradient4084"><stop id="stop4086" offset="0" stop-color="#fff" stop-opacity="1"/><stop id="stop4088" offset=".016" stop-color="#fff" stop-opacity=".235"/><stop id="stop4090" offset=".993" stop-color="#fff" stop-opacity=".157"/><stop id="stop4092" offset="1" stop-color="#fff" stop-opacity=".392"/></linearGradient><linearGradient id="linearGradient3912"><stop id="stop3914" offset="0" stop-color="#273445" stop-opacity="1"/><stop id="stop3916" offset=".35" stop-color="#667885" stop-opacity="1"/><stop id="stop3918" offset=".494" stop-color="#95a3ab" stop-opacity="1"/><stop id="stop3920" offset=".589" stop-color="#667885" stop-opacity="1"/><stop id="stop3922" offset="1" stop-color="#485a6c" stop-opacity="1"/></linearGradient><linearGradient id="linearGradient10691-1"><stop id="stop10693-3" offset="0" stop-color="#000" stop-opacity="1"/><stop id="stop10695-1" offset="1" stop-color="#000" stop-opacity="0"/></linearGradient><linearGradient id="linearGradient2451" x1="361.106" x2="361.106" y1="87.05" y2="94.396" gradientTransform="matrix(1.3111548,0,0,1.3337028,-437.61398,-66.532889)" gradientUnits="userSpaceOnUse" xlink:href="#linearGradient3912"/><radialGradient id="radialGradient2456" cx="6.703" cy="73.616" r="7.228" fx="6.703" fy="73.616" gradientTransform="matrix(2.5824009,0,0,0.5533716,14.690909,17.92982)" gradientUnits="userSpaceOnUse" xlink:href="#linearGradient10691-1"/><linearGradient id="outerBackgroundGradient-5-0"><stop id="stop3864-8-6-4" offset="0" stop-color="#261e2b" stop-opacity="1"/><stop id="stop3866-9-1-86" offset="1" stop-color="#352f39" stop-opacity="1"/></linearGradient><linearGradient id="linearGradient3880"><stop id="stop3883" offset="0" stop-color="#fff" stop-opacity="1"/><stop id="stop3885" offset="1" stop-color="#fff" stop-opacity="0"/></linearGradient><linearGradient id="linearGradient3141" x1="10" x2="20" y1="-3" y2="12" gradientTransform="matrix(1.5500003,0,0,1.5555554,-0.55000582,17.444445)" gradientUnits="userSpaceOnUse" xlink:href="#linearGradient3880"/><linearGradient id="linearGradient3144" x1="24" x2="24" y1="5.753" y2="42.121" gradientTransform="matrix(1.6486489,0,0,1.135135,-7.5675799,-0.74323082)" gradientUnits="userSpaceOnUse" xlink:href="#linearGradient4084"/><linearGradient id="linearGradient3148" x1="15" x2="15" y1="24.619" y2="2" gradientTransform="matrix(1.4000003,0,0,1.5652174,2.5999953,21.02178)" gradientUnits="userSpaceOnUse" xlink:href="#outerBackgroundGradient-5-0"/><linearGradient id="linearGradient3152-7" x1="25.005" x2="25.005" y1="51.076" y2="40.265" gradientTransform="matrix(1.2162163,0,0,0.83783786,2.6663586,14.977385)" gradientUnits="userSpaceOnUse" xlink:href="#linearGradient4054-5"/><linearGradient id="linearGradient4054-5"><stop id="stop4056-0" offset="0" stop-color="#fff" stop-opacity="1"/><stop id="stop4058-4" offset=".063" stop-color="#fff" stop-opacity=".235"/><stop id="stop4060-4" offset=".969" stop-color="#fff" stop-opacity=".157"/><stop id="stop4062-0" offset="1" stop-color="#fff" stop-opacity=".392"/></linearGradient><linearGradient id="outerBackgroundGradient-5-0-4"><stop id="stop3864-8-6-4-3" offset="0" stop-color="#261e2b" stop-opacity="1"/><stop id="stop3866-9-1-86-8" offset="1" stop-color="#352f39" stop-opacity="1"/></linearGradient><linearGradient id="linearGradient4109" x1="15" x2="15" y1="24.619" y2="2" gradientTransform="matrix(1.3500003,0,0,1.4782609,3.6499947,21.326128)" gradientUnits="userSpaceOnUse" xlink:href="#outerBackgroundGradient-5-0-4"/><linearGradient id="linearGradient3833" x1="186.54" x2="173.702" y1="17.586" y2="39.744" gradientTransform="matrix(-2.9598255,0,0,1.8502855,581.1265,-22.538376)" gradientUnits="userSpaceOnUse" xlink:href="#linearGradient3880"/><linearGradient id="linearGradient3830" x1="182" x2="182" y1="33" y2="24.52" gradientTransform="matrix(-1.6969746,0,0,1.6969746,353.57218,-16.985399)" gradientUnits="userSpaceOnUse" xlink:href="#linearGradient3880"/><linearGradient id="linearGradient4194" x1="16" x2="16" y1="64" y2="24" gradientUnits="userSpaceOnUse" xlink:href="#linearGradient4188"/></defs><g id="g4276"><g id="g4218"><path d="m 50.666665,58.666665 c 0,2.20914 -8.357351,4 -18.666667,4 -10.309315,0 -18.666665,-1.79086 -18.666665,-4 0,-2.209138 8.35735,-4 18.666665,-4 10.309316,0 18.666667,1.790862 18.666667,4 l 0,0 z" style="marker:none" id="path2589" fill="url(#radialGradient2456)" fill-opacity="1" fill-rule="nonzero" stroke="none" stroke-width=".8" display="inline" opacity=".3" overflow="visible" visibility="visible"/><path id="rect1789" fill="url(#linearGradient2451)" fill-opacity="1" fill-rule="nonzero" stroke="none" stroke-dasharray="none" stroke-dashoffset=".5" stroke-linecap="round" stroke-linejoin="round" stroke-miterlimit="4" stroke-opacity="1" stroke-width=".998" d="m 23.919786,48.499137 c 0,0 0.186555,5.677784 -0.743925,7.001192 -0.93048,1.323409 -2.781966,1.338846 -2.781966,1.338846 -1.188092,0.139034 -1.19792,2.661687 0,2.661687 l 23.212115,0 c 1.197921,0 1.188341,-2.524427 0,-2.661687 0,0 -1.851406,-0.01544 -2.781873,-1.338846 -0.930466,-1.323405 -0.744017,-7.001192 -0.744017,-7.001192 l -16.160334,0 0,0 z" display="inline" enable-background="new" overflow="visible" visibility="visible" style="marker:none"/><rect id="rect2722" width="63" height="44" x=".5" y="4.5" fill="#1a1a1a" fill-opacity="1" stroke="#000" stroke-dasharray="none" stroke-dashoffset=".5" stroke-linecap="round" stroke-linejoin="round" stroke-miterlimit="4" stroke-opacity="1" stroke-width="1" rx="1.4" ry="1.333"/><path id="rect2722-0" fill="url(#linearGradient4194)" fill-opacity="1" stroke="none" d="m 3.9999997,8.5000405 55.9999993,0 0,36.0000005 -55.9999993,0 z" display="inline"/><path id="path3942" fill="#000" fill-opacity="1" stroke="none" d="m 4,8.5 0,36 56,0 0,-36 -56,0 z m 1,1 54,0 0,34 -54,0 0,-34 z" display="inline" opacity=".1"/><rect id="rect6741" width="61" height="42" x="1.5" y="5.5" fill="none" stroke="url(#linearGradient3144)" stroke-dasharray="none" stroke-dashoffset="0" stroke-linecap="round" stroke-linejoin="round" stroke-miterlimit="4" stroke-opacity="1" stroke-width="1" opacity=".2" rx="0" ry="0"/><path id="rect1789-9" fill="none" fill-opacity="1" fill-rule="nonzero" stroke="#000" stroke-dasharray="none" stroke-dashoffset=".5" stroke-linecap="round" stroke-linejoin="round" stroke-miterlimit="4" stroke-opacity="1" stroke-width=".998" d="m 23.919786,48.499137 c 0,0 0.186555,5.677784 -0.743925,7.001192 -0.93048,1.323409 -2.781966,1.338846 -2.781966,1.338846 -1.188092,0.139034 -1.19792,2.661687 0,2.661687 l 23.212115,0 c 1.197921,0 1.188341,-2.524427 0,-2.661687 0,0 -1.851406,-0.01544 -2.781873,-1.338846 -0.930466,-1.323405 -0.744017,-7.001192 -0.744017,-7.001192 l -16.160334,0 0,0 z" color="#000" display="inline" enable-background="new" opacity=".4" overflow="visible" visibility="visible" style="marker:none"/><path id="path4043" fill="none" stroke="url(#linearGradient3152-7)" stroke-dasharray="none" stroke-dashoffset="0" stroke-linecap="round" stroke-linejoin="round" stroke-miterlimit="4" stroke-opacity="1" stroke-width="1" d="m 24.90625,49.5 c 0.01129,0.552305 0.04325,0.949789 0,2.03125 C 24.873643,52.346505 24.8079,53.220881 24.6875,54 24.5671,54.779119 24.435885,55.442547 24,56.0625 c -1.193603,1.697645 -3.115921,1.748832 -3.40625,1.75 -0.03548,0.06074 -0.09343,0.236278 -0.09375,0.40625 -2.61e-4,0.137285 0.04053,0.22439 0.0625,0.28125 l 22.875,0 C 43.45954,58.44296 43.50025,58.356154 43.5,58.21875 43.499685,58.048631 43.44158,57.872959 43.40625,57.8125 43.11592,57.811332 41.193593,57.760151 40,56.0625 39.564121,55.442548 39.432899,54.779118 39.3125,54 c -0.120399,-0.779118 -0.186142,-1.653495 -0.21875,-2.46875 -0.04326,-1.081461 -0.01129,-1.478945 0,-2.03125 l -14.1875,0 z m 18.5,8.3125 c -0.03533,-0.06046 0.01418,0.02567 0.0625,0.03125 l 0,-0.03125 c -0.005,3.2e-5 -0.0552,2.9e-5 -0.0625,0 z m -22.8125,0 c -0.0073,2.9e-5 -0.05749,3.2e-5 -0.0625,0 -3.58e-4,-2e-6 3.46e-4,0.03125 0,0.03125 0.04802,-0.0056 0.09798,-0.09199 0.0625,-0.03125 z" color="#000" display="inline" enable-background="accumulate" opacity=".3" overflow="visible" visibility="visible" style="marker:none"/></g><g id="g4266"><path id="path4236" fill="#c6262e" fill-opacity="1" fill-rule="evenodd" stroke="none" stroke-dasharray="none" stroke-dashoffset="0" stroke-linecap="butt" stroke-linejoin="round" stroke-miterlimit="4" stroke-opacity="1" stroke-width="1" d="M 59.5,8.9999292 4.4998766,44 59.5,44 Z M 48.500001,27.5 l 0,8.999959 -14.000147,0 z" color="#000" display="inline" enable-background="accumulate" opacity=".9" overflow="visible" visibility="visible" style="marker:none"/><path id="path3410" fill="none" fill-opacity="1" fill-rule="evenodd" stroke="#7a0000" stroke-dasharray="none" stroke-dashoffset="0" stroke-linecap="butt" stroke-linejoin="round" stroke-miterlimit="4" stroke-opacity="1" stroke-width="1" d="M 59.5,8.9999292 4.4998766,44 59.5,44 Z M 48.500001,27.5 l 0,8.999959 -14.000147,0 z" color="#000" display="inline" enable-background="accumulate" overflow="visible" visibility="visible" style="marker:none"/><path id="path3981" fill="none" stroke="url(#linearGradient3833)" stroke-linecap="butt" stroke-linejoin="miter" stroke-opacity="1" stroke-width="1" d="M 58.500394,10.8125 58.499605,43 7.9634654,43 Z" opacity=".3"/><path id="path3981-5" fill="none" stroke="url(#linearGradient3830)" stroke-linecap="butt" stroke-linejoin="miter" stroke-opacity="1" stroke-width="1" d="m 49.5,27 0,10.5 -15.5,0" opacity=".3"/><path id="path4216" fill="#000" fill-opacity="1" fill-rule="evenodd" stroke="none" stroke-dasharray="none" stroke-dashoffset="0" stroke-linecap="butt" stroke-linejoin="miter" stroke-miterlimit="4" stroke-opacity="1" stroke-width="1" d="M 11 41 L 11 43.5 L 12 43.5 L 12 41 L 11 41 z M 14 41 L 14 43.5 L 15 43.5 L 15 41 L 14 41 z M 17 41 L 17 43.5 L 18 43.5 L 18 41 L 17 41 z M 20 41 L 20 43.5 L 21 43.5 L 21 41 L 20 41 z M 23 41 L 23 43.5 L 24 43.5 L 24 41 L 23 41 z M 26 41 L 26 43.5 L 27 43.5 L 27 41 L 26 41 z M 29 41 L 29 43.5 L 30 43.5 L 30 41 L 29 41 z M 32 41 L 32 43.5 L 33 43.5 L 33 41 L 32 41 z M 35 41 L 35 43.5 L 36 43.5 L 36 41 L 35 41 z M 38 41 L 38 43.5 L 39 43.5 L 39 41 L 38 41 z M 41 41 L 41 43.5 L 42 43.5 L 42 41 L 41 41 z M 44 41 L 44 43.5 L 45 43.5 L 45 41 L 44 41 z M 47 41 L 47 43.5 L 48 43.5 L 48 41 L 47 41 z M 50 41 L 50 43.5 L 51 43.5 L 51 41 L 50 41 z M 53 41 L 53 43.5 L 54 43.5 L 54 41 L 53 41 z M 56 41 L 56 43.5 L 57 43.5 L 57 41 L 56 41 z" baseline-shift="baseline" clip-rule="nonzero" color="#000" color-interpolation="sRGB" color-interpolation-filters="linearRGB" color-rendering="auto" direction="ltr" display="inline" enable-background="accumulate" font-family="sans-serif" font-size="medium" font-stretch="normal" font-style="normal" font-variant="normal" font-weight="normal" image-rendering="auto" letter-spacing="normal" opacity=".3" overflow="visible" shape-rendering="auto" text-anchor="start" text-decoration="none" text-rendering="auto" visibility="visible" word-spacing="normal" writing-mode="lr-tb" style="line-height:normal;text-indent:0;text-align:start;text-decoration-line:none;text-decoration-style:solid;text-decoration-color:#000;text-transform:none;block-progression:tb;white-space:normal;isolation:auto;mix-blend-mode:normal;solid-color:#000;solid-opacity:1"/><path id="path4257" fill="#fff" fill-opacity="1" fill-rule="evenodd" stroke="none" stroke-dasharray="none" stroke-dashoffset="0" stroke-linecap="butt" stroke-linejoin="miter" stroke-miterlimit="4" stroke-opacity="1" stroke-width="1" d="M 12 41 L 12 43.5 L 13 43.5 L 13 41 L 12 41 z M 15 41 L 15 43.5 L 16 43.5 L 16 41 L 15 41 z M 18 41 L 18 43.5 L 19 43.5 L 19 41 L 18 41 z M 21 41 L 21 43.5 L 22 43.5 L 22 41 L 21 41 z M 24 41 L 24 43.5 L 25 43.5 L 25 41 L 24 41 z M 27 41 L 27 43.5 L 28 43.5 L 28 41 L 27 41 z M 30 41 L 30 43.5 L 31 43.5 L 31 41 L 30 41 z M 33 41 L 33 43.5 L 34 43.5 L 34 41 L 33 41 z M 36 41 L 36 43.5 L 37 43.5 L 37 41 L 36 41 z M 39 41 L 39 43.5 L 40 43.5 L 40 41 L 39 41 z M 42 41 L 42 43.5 L 43 43.5 L 43 41 L 42 41 z M 45 41 L 45 43.5 L 46 43.5 L 46 41 L 45 41 z M 48 41 L 48 43.5 L 49 43.5 L 49 41 L 48 41 z M 51 41 L 51 43.5 L 52 43.5 L 52 41 L 51 41 z M 54 41 L 54 43.5 L 55 43.5 L 55 41 L 54 41 z M 57 41 L 57 43.5 L 58 43.5 L 58 41 L 57 41 z" baseline-shift="baseline" clip-rule="nonzero" color="#000" color-interpolation="sRGB" color-interpolation-filters="linearRGB" color-rendering="auto" direction="ltr" display="inline" enable-background="accumulate" font-family="sans-serif" font-size="medium" font-stretch="normal" font-style="normal" font-variant="normal" font-weight="normal" image-rendering="auto" letter-spacing="normal" opacity=".15" overflow="visible" shape-rendering="auto" text-anchor="start" text-decoration="none" text-rendering="auto" visibility="visible" word-spacing="normal" writing-mode="lr-tb" style="line-height:normal;text-indent:0;text-align:start;text-decoration-line:none;text-decoration-style:solid;text-decoration-color:#000;text-transform:none;block-progression:tb;white-space:normal;isolation:auto;mix-blend-mode:normal;solid-color:#000;solid-opacity:1"/><path id="path4259" fill="none" fill-rule="evenodd" stroke="#000" stroke-linecap="butt" stroke-linejoin="miter" stroke-opacity="1" stroke-width="1" d="m 57,40.5 2,0 z m 0,-3 2,0 z m 0,-3 2,0 z m 0,-3 2,0 z m 0,-3 2,0 z m 0,-3 2,0 z m 0,-3 2,0 z m 0,-3 2,0 z m 0,-3 2,0 z m 0,-3 2,0 z" opacity=".3"/><path id="path4261" fill="none" fill-rule="evenodd" stroke="#fff" stroke-linecap="butt" stroke-linejoin="miter" stroke-opacity="1" stroke-width="1" d="m 57,41.5 2,0 z m 0,-3 2,0 z m 0,-3 2,0 z m 0,-3 2,0 z m 0,-3 2,0 z m 0,-3 2,0 z m 0,-3 2,0 z m 0,-3 2,0 z m 0,-3 2,0 z m 0,-3 2,0 z" opacity=".15"/></g></g></svg>